<?xml version="1.0" encoding="utf-8" standalone="no"?>
<!DOCTYPE svg PUBLIC "-//W3C//DTD SVG 1.1//EN"
  "http://www.w3.org/Graphics/SVG/1.1/DTD/svg11.dtd">
<svg xmlns:xlink="http://www.w3.org/1999/xlink" width="230.055194pt" height="151.146694pt" viewBox="0 0 230.055194 151.146694" xmlns="http://www.w3.org/2000/svg" version="1.1">
 <metadata>
  <rdf:RDF xmlns:dc="http://purl.org/dc/elements/1.1/" xmlns:cc="http://creativecommons.org/ns#" xmlns:rdf="http://www.w3.org/1999/02/22-rdf-syntax-ns#">
   <cc:Work>
    <dc:type rdf:resource="http://purl.org/dc/dcmitype/StillImage"/>
    <dc:date>2026-06-21T16:09:35.770411</dc:date>
    <dc:format>image/svg+xml</dc:format>
    <dc:creator>
     <cc:Agent>
      <dc:title>Matplotlib v3.10.9, https://matplotlib.org/</dc:title>
     </cc:Agent>
    </dc:creator>
   </cc:Work>
  </rdf:RDF>
 </metadata>
 <defs>
  <style type="text/css">*{stroke-linejoin: round; stroke-linecap: butt}</style>
 </defs>
 <g id="figure_1">
  <g id="patch_1">
   <path d="M 0 151.146694 
L 230.055194 151.146694 
L 230.055194 0 
L 0 0 
z
" style="fill: #ffffff"/>
  </g>
  <g id="axes_1">
   <g id="patch_2">
    <path d="M 34.409594 120.7296 
L 228.615194 120.7296 
L 228.615194 1.44 
L 34.409594 1.44 
z
" style="fill: #ffffff"/>
   </g>
   <g id="patch_3">
    <path d="M 34.409594 120.7296 
L 228.615194 120.7296 
L 228.615194 82.8303 
L 34.409594 82.8303 
z
" clip-path="url(#pb867842248)" style="fill: #b6b2bb; opacity: 0.13"/>
   </g>
   <g id="matplotlib.axis_1">
    <g id="xtick_1">
     <g id="line2d_1"/>
     <g id="text_1">
      <text style="font-size: 7px; font-family: 'Arial', 'Helvetica', 'DejaVu Sans', sans-serif; fill: #333333" transform="translate(61.20866 129.240069)">Low</text>
      <text style="font-size: 7px; font-family: 'Arial', 'Helvetica', 'DejaVu Sans', sans-serif; fill: #333333" transform="translate(56.932645 136.643881)">activity</text>
     </g>
    </g>
    <g id="xtick_2">
     <g id="line2d_2"/>
     <g id="text_2">
      <text style="font-size: 7px; font-family: 'Arial', 'Helvetica', 'DejaVu Sans', sans-serif; fill: #333333" transform="translate(119.064972 129.240069)">Medium</text>
      <text style="font-size: 7px; font-family: 'Arial', 'Helvetica', 'DejaVu Sans', sans-serif; fill: #333333" transform="translate(120.816066 136.643881)">activity</text>
     </g>
    </g>
    <g id="xtick_3">
     <g id="line2d_3"/>
     <g id="text_3">
      <text style="font-size: 7px; font-family: 'Arial', 'Helvetica', 'DejaVu Sans', sans-serif; fill: #333333" transform="translate(188.197846 129.240069)">High</text>
      <text style="font-size: 7px; font-family: 'Arial', 'Helvetica', 'DejaVu Sans', sans-serif; fill: #333333" transform="translate(184.699487 136.725913)">activity</text>
     </g>
    </g>
    <g id="text_4">
     <text style="font-size: 8px; font-family: 'Arial', 'Helvetica', 'DejaVu Sans', sans-serif; text-anchor: middle; fill: #333333" x="131.512394" y="148.022944" transform="rotate(-0 131.512394 148.022944)">Activity tercile (eligible-row count)</text>
    </g>
   </g>
   <g id="matplotlib.axis_2">
    <g id="ytick_1">
     <g id="line2d_4">
      <path d="M 34.409594 107.6823 
L 228.615194 107.6823 
" clip-path="url(#pb867842248)" style="fill: none; stroke: #b6b2bb; stroke-opacity: 0.38; stroke-width: 0.42; stroke-linecap: square"/>
     </g>
     <g id="line2d_5">
      <defs>
       <path id="mfe408ed212" d="M 0 0 
L -3.5 0 
" style="stroke: #333333; stroke-width: 0.8"/>
      </defs>
      <g>
       <use xlink:href="#mfe408ed212" x="34.409594" y="107.6823" style="fill: #333333; stroke: #333333; stroke-width: 0.8"/>
      </g>
     </g>
     <g id="text_5">
      <text style="font-size: 7px; font-family: 'Arial', 'Helvetica', 'DejaVu Sans', sans-serif; text-anchor: end; fill: #333333" x="27.409594" y="110.187534" transform="rotate(-0 27.409594 110.187534)">−2</text>
     </g>
    </g>
    <g id="ytick_2">
     <g id="line2d_6">
      <path d="M 34.409594 82.8303 
L 228.615194 82.8303 
" clip-path="url(#pb867842248)" style="fill: none; stroke: #b6b2bb; stroke-opacity: 0.38; stroke-width: 0.42; stroke-linecap: square"/>
     </g>
     <g id="line2d_7">
      <g>
       <use xlink:href="#mfe408ed212" x="34.409594" y="82.8303" style="fill: #333333; stroke: #333333; stroke-width: 0.8"/>
      </g>
     </g>
     <g id="text_6">
      <text style="font-size: 7px; font-family: 'Arial', 'Helvetica', 'DejaVu Sans', sans-serif; text-anchor: end; fill: #333333" x="27.409594" y="85.335534" transform="rotate(-0 27.409594 85.335534)">0</text>
     </g>
    </g>
    <g id="ytick_3">
     <g id="line2d_8">
      <path d="M 34.409594 57.9783 
L 228.615194 57.9783 
" clip-path="url(#pb867842248)" style="fill: none; stroke: #b6b2bb; stroke-opacity: 0.38; stroke-width: 0.42; stroke-linecap: square"/>
     </g>
     <g id="line2d_9">
      <g>
       <use xlink:href="#mfe408ed212" x="34.409594" y="57.9783" style="fill: #333333; stroke: #333333; stroke-width: 0.8"/>
      </g>
     </g>
     <g id="text_7">
      <text style="font-size: 7px; font-family: 'Arial', 'Helvetica', 'DejaVu Sans', sans-serif; text-anchor: end; fill: #333333" x="27.409594" y="60.483534" transform="rotate(-0 27.409594 60.483534)">2</text>
     </g>
    </g>
    <g id="ytick_4">
     <g id="line2d_10">
      <path d="M 34.409594 33.1263 
L 228.615194 33.1263 
" clip-path="url(#pb867842248)" style="fill: none; stroke: #b6b2bb; stroke-opacity: 0.38; stroke-width: 0.42; stroke-linecap: square"/>
     </g>
     <g id="line2d_11">
      <g>
       <use xlink:href="#mfe408ed212" x="34.409594" y="33.1263" style="fill: #333333; stroke: #333333; stroke-width: 0.8"/>
      </g>
     </g>
     <g id="text_8">
      <text style="font-size: 7px; font-family: 'Arial', 'Helvetica', 'DejaVu Sans', sans-serif; text-anchor: end; fill: #333333" x="27.409594" y="35.631534" transform="rotate(-0 27.409594 35.631534)">4</text>
     </g>
    </g>
    <g id="ytick_5">
     <g id="line2d_12">
      <path d="M 34.409594 8.2743 
L 228.615194 8.2743 
" clip-path="url(#pb867842248)" style="fill: none; stroke: #b6b2bb; stroke-opacity: 0.38; stroke-width: 0.42; stroke-linecap: square"/>
     </g>
     <g id="line2d_13">
      <g>
       <use xlink:href="#mfe408ed212" x="34.409594" y="8.2743" style="fill: #333333; stroke: #333333; stroke-width: 0.8"/>
      </g>
     </g>
     <g id="text_9">
      <text style="font-size: 7px; font-family: 'Arial', 'Helvetica', 'DejaVu Sans', sans-serif; text-anchor: end; fill: #333333" x="27.409594" y="10.779534" transform="rotate(-0 27.409594 10.779534)">6</text>
     </g>
    </g>
    <g id="text_10">
     <!-- $\Delta$ Macro-F1 -->
     <g style="fill: #333333" transform="translate(7.16625 82.0848) rotate(-90)">
      <text>
       <tspan x="0" y="-0.171875" style="font-size: 8px; font-family: 'DejaVu Sans'; fill: #333333">Δ</tspan>
       <tspan x="5.472656" y="-0.171875" style="font-size: 8px; font-family: 'Arial'; fill: #333333"> </tspan>
       <tspan x="7.695312" y="-0.171875" style="font-size: 8px; font-family: 'Arial'; fill: #333333">M</tspan>
       <tspan x="14.359375" y="-0.171875" style="font-size: 8px; font-family: 'Arial'; fill: #333333">a</tspan>
       <tspan x="18.808594" y="-0.171875" style="font-size: 8px; font-family: 'Arial'; fill: #333333">c</tspan>
       <tspan x="22.808594" y="-0.171875" style="font-size: 8px; font-family: 'Arial'; fill: #333333">r</tspan>
       <tspan x="25.472656" y="-0.171875" style="font-size: 8px; font-family: 'Arial'; fill: #333333">o</tspan>
       <tspan x="29.921875" y="-0.171875" style="font-size: 8px; font-family: 'Arial'; fill: #333333">-</tspan>
       <tspan x="32.585938" y="-0.171875" style="font-size: 8px; font-family: 'Arial'; fill: #333333">F</tspan>
       <tspan x="37.472656" y="-0.171875" style="font-size: 8px; font-family: 'Arial'; fill: #333333">1</tspan>
      </text>
     </g>
     <text style="font-size: 8px; font-family: 'Arial', 'Helvetica', 'DejaVu Sans', sans-serif; fill: #333333" transform="translate(15.74475 106.657925) rotate(-90)">vs. stratified baseline (pp)</text>
    </g>
   </g>
   <g id="line2d_14">
    <path d="M 34.409594 82.8303 
L 228.615194 82.8303 
" clip-path="url(#pb867842248)" style="fill: none; stroke: #333333; stroke-width: 1.2; stroke-linecap: square"/>
   </g>
   <g id="patch_4">
    <path d="M 34.409594 120.7296 
L 34.409594 1.44 
" style="fill: none; stroke: #333333; stroke-width: 0.8; stroke-linejoin: miter; stroke-linecap: square"/>
   </g>
   <g id="patch_5">
    <path d="M 34.409594 120.7296 
L 228.615194 120.7296 
" style="fill: none; stroke: #333333; stroke-width: 0.8; stroke-linejoin: miter; stroke-linecap: square"/>
   </g>
   <g id="patch_6">
    <path d="M 46.547444 25.842179 
L 68.267807 25.842179 
L 68.267807 4.782594 
L 46.547444 4.782594 
z
" clip-path="url(#pb867842248)" style="fill: #b6b2bb; opacity: 0.6"/>
   </g>
   <g id="patch_7">
    <path d="M 110.430865 69.164185 
L 132.151228 69.164185 
L 132.151228 48.979391 
L 110.430865 48.979391 
z
" clip-path="url(#pb867842248)" style="fill: #b6b2bb; opacity: 0.6"/>
   </g>
   <g id="patch_8">
    <path d="M 174.314286 112.629091 
L 196.034649 112.629091 
L 196.034649 91.283708 
L 174.314286 91.283708 
z
" clip-path="url(#pb867842248)" style="fill: #b6b2bb; opacity: 0.6"/>
   </g>
   <g id="patch_9">
    <path d="M 66.990138 39.161608 
L 88.710502 39.161608 
L 88.710502 25.028276 
L 66.990138 25.028276 
z
" clip-path="url(#pb867842248)" style="fill: #b6b2bb; opacity: 0.6"/>
   </g>
   <g id="patch_10">
    <path d="M 130.87356 82.840241 
L 152.593923 82.840241 
L 152.593923 68.957914 
L 130.87356 68.957914 
z
" clip-path="url(#pb867842248)" style="fill: #b6b2bb; opacity: 0.6"/>
   </g>
   <g id="patch_11">
    <path d="M 194.756981 115.711981 
L 216.477344 115.711981 
L 216.477344 102.234742 
L 194.756981 102.234742 
z
" clip-path="url(#pb867842248)" style="fill: #b6b2bb; opacity: 0.6"/>
   </g>
   <g id="patch_12">
    <path d="M 49.102781 82.8303 
L 65.71247 82.8303 
L 65.71247 15.312386 
L 49.102781 15.312386 
z
" clip-path="url(#pb867842248)" style="fill: #6d8989; stroke: #333333; stroke-width: 0.7; stroke-linejoin: miter"/>
   </g>
   <g id="patch_13">
    <path d="M 112.986202 82.8303 
L 129.595891 82.8303 
L 129.595891 59.071788 
L 112.986202 59.071788 
z
" clip-path="url(#pb867842248)" style="fill: #6d8989; stroke: #333333; stroke-width: 0.7; stroke-linejoin: miter"/>
   </g>
   <g id="patch_14">
    <path d="M 176.869623 82.8303 
L 193.479312 82.8303 
L 193.479312 101.956399 
L 176.869623 101.956399 
z
" clip-path="url(#pb867842248)" style="fill: #6d8989; stroke: #333333; stroke-width: 0.7; stroke-linejoin: miter"/>
   </g>
   <g id="patch_15">
    <path d="M 69.545475 82.8303 
L 86.155165 82.8303 
L 86.155165 32.094942 
L 69.545475 32.094942 
z
" clip-path="url(#pb867842248)" style="fill: url(#h7671fbc016); stroke: #333333; stroke-width: 0.7; stroke-linejoin: miter"/>
   </g>
   <g id="patch_16">
    <path d="M 133.428896 82.8303 
L 150.038586 82.8303 
L 150.038586 75.899077 
L 133.428896 75.899077 
z
" clip-path="url(#pb867842248)" style="fill: url(#h7671fbc016); stroke: #333333; stroke-width: 0.7; stroke-linejoin: miter"/>
   </g>
   <g id="patch_17">
    <path d="M 197.312317 82.8303 
L 213.922007 82.8303 
L 213.922007 108.973361 
L 197.312317 108.973361 
z
" clip-path="url(#pb867842248)" style="fill: url(#h7671fbc016); stroke: #333333; stroke-width: 0.7; stroke-linejoin: miter"/>
   </g>
   <g id="legend_1">
    <g id="patch_18">
     <path d="M 169.21135 8.660484 
L 174.82135 8.660484 
L 174.82135 5.090484 
L 169.21135 5.090484 
z
" style="fill: #6d8989; stroke: #333333; stroke-width: 0.7; stroke-linejoin: miter"/>
    </g>
    <g id="text_11">
     <text style="font-size: 5.1px; font-family: 'Arial', 'Helvetica', 'DejaVu Sans', sans-serif; text-anchor: start; fill: #333333" x="176.86135" y="8.660484" transform="rotate(-0 176.86135 8.660484)">Validation</text>
    </g>
    <g id="patch_19">
     <path d="M 169.21135 14.956594 
L 174.82135 14.956594 
L 174.82135 11.386594 
L 169.21135 11.386594 
z
" style="fill: url(#h7671fbc016); stroke: #333333; stroke-width: 0.7; stroke-linejoin: miter"/>
    </g>
    <g id="text_12">
     <text style="font-size: 5.1px; font-family: 'Arial', 'Helvetica', 'DejaVu Sans', sans-serif; text-anchor: start; fill: #333333" x="176.86135" y="14.956594" transform="rotate(-0 176.86135 14.956594)">Guarded WF</text>
    </g>
    <g id="line2d_15">
     <path d="M 169.21135 19.467703 
L 172.01635 19.467703 
L 174.82135 19.467703 
" style="fill: none; stroke: #000000; stroke-opacity: 0; stroke-width: 1.3; stroke-linecap: square"/>
     <defs>
      <path id="m36d748c6ee" d="M 0 2 
C 0.530406 2 1.03916 1.789267 1.414214 1.414214 
C 1.789267 1.03916 2 0.530406 2 0 
C 2 -0.530406 1.789267 -1.03916 1.414214 -1.414214 
C 1.03916 -1.789267 0.530406 -2 0 -2 
C -0.530406 -2 -1.03916 -1.789267 -1.414214 -1.414214 
C -1.789267 -1.03916 -2 -0.530406 -2 0 
C -2 0.530406 -1.789267 1.03916 -1.414214 1.414214 
C -1.03916 1.789267 -0.530406 2 0 2 
z
" style="stroke: #333333; stroke-width: 0.75"/>
     </defs>
     <g>
      <use xlink:href="#m36d748c6ee" x="172.01635" y="19.467703" style="fill: #ffffff; stroke: #333333; stroke-width: 0.75"/>
     </g>
    </g>
    <g id="text_13">
     <text style="font-size: 5.1px; font-family: 'Arial', 'Helvetica', 'DejaVu Sans', sans-serif; text-anchor: start; fill: #333333" x="176.86135" y="21.252703" transform="rotate(-0 176.86135 21.252703)">Seed 101</text>
    </g>
    <g id="line2d_16">
     <path d="M 169.21135 25.763813 
L 172.01635 25.763813 
L 174.82135 25.763813 
" style="fill: none; stroke: #000000; stroke-opacity: 0; stroke-width: 1.3; stroke-linecap: square"/>
     <defs>
      <path id="m091799e8e8" d="M 0 2.828427 
L 2.828427 0 
L 0 -2.828427 
L -2.828427 0 
z
" style="stroke: #333333; stroke-width: 0.75; stroke-linejoin: miter"/>
     </defs>
     <g>
      <use xlink:href="#m091799e8e8" x="172.01635" y="25.763813" style="fill: #ffffff; stroke: #333333; stroke-width: 0.75; stroke-linejoin: miter"/>
     </g>
    </g>
    <g id="text_14">
     <text style="font-size: 5.1px; font-family: 'Arial', 'Helvetica', 'DejaVu Sans', sans-serif; text-anchor: start; fill: #333333" x="176.86135" y="27.548813" transform="rotate(-0 176.86135 27.548813)">Seed 202</text>
    </g>
    <g id="patch_20">
     <path d="M 169.21135 33.844922 
L 174.82135 33.844922 
L 174.82135 30.274922 
L 169.21135 30.274922 
z
" style="fill: #b6b2bb; opacity: 0.6"/>
    </g>
    <g id="text_15">
     <text style="font-size: 5.1px; font-family: 'Arial', 'Helvetica', 'DejaVu Sans', sans-serif; text-anchor: start; fill: #333333" x="176.86135" y="33.844922" transform="rotate(-0 176.86135 33.844922)">Day-block MDE band</text>
    </g>
   </g>
   <g id="PathCollection_1">
    <defs>
     <path id="mc3e140cbc5" d="M 0 1.936492 
C 0.513564 1.936492 1.006162 1.732451 1.369306 1.369306 
C 1.732451 1.006162 1.936492 0.513564 1.936492 0 
C 1.936492 -0.513564 1.732451 -1.006162 1.369306 -1.369306 
C 1.006162 -1.732451 0.513564 -1.936492 0 -1.936492 
C -0.513564 -1.936492 -1.006162 -1.732451 -1.369306 -1.369306 
C -1.732451 -1.006162 -1.936492 -0.513564 -1.936492 0 
C -1.936492 0.513564 -1.732451 1.006162 -1.369306 1.369306 
C -1.006162 1.732451 -0.513564 1.936492 0 1.936492 
z
" style="stroke: #333333; stroke-width: 0.75"/>
    </defs>
    <g clip-path="url(#pb867842248)">
     <use xlink:href="#mc3e140cbc5" x="54.532871" y="16.961598" style="fill: #ffffff; stroke: #333333; stroke-width: 0.75"/>
     <use xlink:href="#mc3e140cbc5" x="118.416292" y="59.777281" style="fill: #ffffff; stroke: #333333; stroke-width: 0.75"/>
     <use xlink:href="#mc3e140cbc5" x="182.299713" y="101.900246" style="fill: #ffffff; stroke: #333333; stroke-width: 0.75"/>
    </g>
   </g>
   <g id="PathCollection_2">
    <defs>
     <path id="me769825e54" d="M 0 2.738613 
L 2.738613 0 
L 0 -2.738613 
L -2.738613 0 
z
" style="stroke: #333333; stroke-width: 0.75"/>
    </defs>
    <g clip-path="url(#pb867842248)">
     <use xlink:href="#me769825e54" x="60.282379" y="13.664045" style="fill: #ffffff; stroke: #333333; stroke-width: 0.75"/>
     <use xlink:href="#me769825e54" x="124.1658" y="58.367523" style="fill: #ffffff; stroke: #333333; stroke-width: 0.75"/>
     <use xlink:href="#me769825e54" x="188.049221" y="102.0122" style="fill: #ffffff; stroke: #333333; stroke-width: 0.75"/>
    </g>
   </g>
   <g id="PathCollection_3">
    <g clip-path="url(#pb867842248)">
     <use xlink:href="#mc3e140cbc5" x="74.975566" y="30.90102" style="fill: #ffffff; stroke: #333333; stroke-width: 0.75"/>
     <use xlink:href="#mc3e140cbc5" x="138.858987" y="75.102225" style="fill: #ffffff; stroke: #333333; stroke-width: 0.75"/>
     <use xlink:href="#mc3e140cbc5" x="202.742408" y="106.863383" style="fill: #ffffff; stroke: #333333; stroke-width: 0.75"/>
    </g>
   </g>
   <g id="PathCollection_4">
    <g clip-path="url(#pb867842248)">
     <use xlink:href="#me769825e54" x="80.725074" y="33.289383" style="fill: #ffffff; stroke: #333333; stroke-width: 0.75"/>
     <use xlink:href="#me769825e54" x="144.608495" y="76.696384" style="fill: #ffffff; stroke: #333333; stroke-width: 0.75"/>
     <use xlink:href="#me769825e54" x="208.491916" y="111.082908" style="fill: #ffffff; stroke: #333333; stroke-width: 0.75"/>
    </g>
   </g>
  </g>
 </g>
 <defs>
  <clipPath id="pb867842248">
   <rect x="34.409594" y="1.44" width="194.2056" height="119.2896"/>
  </clipPath>
 </defs>
 <defs>
  <pattern id="h7671fbc016" patternUnits="userSpaceOnUse" x="0" y="0" width="72" height="72">
   <rect x="0" y="0" width="73" height="73" fill="#ab8c96"/>
   <path d="M -36 36 
L 36 -36 
M -30 42 
L 42 -30 
M -24 48 
L 48 -24 
M -18 54 
L 54 -18 
M -12 60 
L 60 -12 
M -6 66 
L 66 -6 
M 0 72 
L 72 0 
M 6 78 
L 78 6 
M 12 84 
L 84 12 
M 18 90 
L 90 18 
M 24 96 
L 96 24 
M 30 102 
L 102 30 
M 36 108 
L 108 36 
" style="fill: #333333; stroke: #333333; stroke-width: 1.0; stroke-linecap: butt; stroke-linejoin: miter"/>
  </pattern>
 </defs>
</svg>
