<?xml version="1.0" encoding="utf-8" standalone="no"?>
<!DOCTYPE svg PUBLIC "-//W3C//DTD SVG 1.1//EN"
  "http://www.w3.org/Graphics/SVG/1.1/DTD/svg11.dtd">
<svg xmlns:xlink="http://www.w3.org/1999/xlink" width="239.76pt" height="226.8pt" viewBox="0 0 239.76 226.8" xmlns="http://www.w3.org/2000/svg" version="1.1">
 <metadata>
  <rdf:RDF xmlns:dc="http://purl.org/dc/elements/1.1/" xmlns:cc="http://creativecommons.org/ns#" xmlns:rdf="http://www.w3.org/1999/02/22-rdf-syntax-ns#">
   <cc:Work>
    <dc:type rdf:resource="http://purl.org/dc/dcmitype/StillImage"/>
    <dc:date>2026-06-22T02:01:32.398889</dc:date>
    <dc:format>image/svg+xml</dc:format>
    <dc:creator>
     <cc:Agent>
      <dc:title>Matplotlib v3.10.9, https://matplotlib.org/</dc:title>
     </cc:Agent>
    </dc:creator>
   </cc:Work>
  </rdf:RDF>
 </metadata>
 <defs>
  <style type="text/css">*{stroke-linejoin: round; stroke-linecap: butt}</style>
 </defs>
 <g id="figure_1">
  <g id="patch_1">
   <path d="M 0 226.8 
L 239.76 226.8 
L 239.76 0 
L 0 0 
z
" style="fill: #ffffff"/>
  </g>
  <g id="axes_1">
   <g id="patch_2">
    <path d="M 62.3376 147.212471 
L 234.9648 147.212471 
L 234.9648 61.236 
L 62.3376 61.236 
z
" style="fill: #ffffff"/>
   </g>
   <g id="FillBetweenPolyCollection_1">
    <defs>
     <path id="mac56470a8a" d="M 70.96896 -160.849126 
L 70.96896 -157.65933 
L 71.612081 -157.691965 
L 72.255202 -157.739827 
L 72.898323 -157.842852 
L 73.541444 -157.860423 
L 74.184565 -157.930847 
L 74.827686 -157.941119 
L 75.470807 -157.965057 
L 76.113928 -157.966576 
L 76.757048 -158.013113 
L 77.400169 -158.000144 
L 78.04329 -158.087952 
L 78.686411 -158.095593 
L 79.329532 -158.152292 
L 79.972653 -158.151772 
L 80.615774 -158.207066 
L 81.258895 -158.185122 
L 81.902016 -158.197787 
L 82.545137 -158.209759 
L 83.188258 -158.212325 
L 83.831379 -158.252791 
L 84.4745 -158.220357 
L 85.117621 -158.274995 
L 85.760742 -158.283401 
L 86.403863 -158.306667 
L 87.046984 -158.369704 
L 87.690104 -158.352767 
L 88.333225 -158.344066 
L 88.976346 -158.380755 
L 89.619467 -158.371974 
L 90.262588 -158.399283 
L 90.905709 -158.374177 
L 91.54883 -158.400944 
L 92.191951 -158.407775 
L 92.835072 -158.414171 
L 93.478193 -158.411443 
L 94.121314 -158.417646 
L 94.764435 -158.420817 
L 95.407556 -158.462752 
L 96.050677 -158.437523 
L 96.693798 -158.434613 
L 97.336919 -158.442535 
L 97.98004 -158.460443 
L 98.62316 -158.467626 
L 99.266281 -158.474189 
L 99.909402 -158.468742 
L 100.552523 -158.487429 
L 101.195644 -158.465007 
L 101.838765 -158.473708 
L 102.481886 -158.479988 
L 103.125007 -158.480901 
L 103.768128 -158.480499 
L 104.411249 -158.464468 
L 105.05437 -158.496227 
L 105.697491 -158.514426 
L 106.340612 -158.506922 
L 106.983733 -158.509807 
L 107.626854 -158.516908 
L 108.269975 -158.531686 
L 108.913096 -158.552318 
L 109.556216 -158.554623 
L 110.199337 -158.566307 
L 110.842458 -158.593351 
L 111.485579 -158.596733 
L 112.1287 -158.594669 
L 112.771821 -158.607222 
L 113.414942 -158.61778 
L 114.058063 -158.602547 
L 114.701184 -158.610602 
L 115.344305 -158.615926 
L 115.987426 -158.605143 
L 116.630547 -158.620179 
L 117.273668 -158.629556 
L 117.916789 -158.620698 
L 118.55991 -158.634958 
L 119.203031 -158.653826 
L 119.846152 -158.649466 
L 120.489272 -158.636045 
L 121.132393 -158.643208 
L 121.775514 -158.646979 
L 122.418635 -158.657226 
L 123.061756 -158.666768 
L 123.704877 -158.679576 
L 124.347998 -158.681394 
L 124.991119 -158.696599 
L 125.63424 -158.684992 
L 126.277361 -158.695478 
L 126.920482 -158.689925 
L 127.563603 -158.694571 
L 128.206724 -158.683507 
L 128.849845 -158.686696 
L 129.492966 -158.699252 
L 130.136087 -158.724105 
L 130.779208 -158.711893 
L 131.422328 -158.70789 
L 132.065449 -158.726426 
L 132.70857 -158.730373 
L 133.351691 -158.734143 
L 133.994812 -158.73403 
L 134.637933 -158.750232 
L 135.281054 -158.740011 
L 135.924175 -158.742432 
L 136.567296 -158.74968 
L 137.210417 -158.758104 
L 137.853538 -158.766292 
L 138.496659 -158.757341 
L 139.13978 -158.770286 
L 139.782901 -158.780592 
L 140.426022 -158.778919 
L 141.069143 -158.794843 
L 141.712264 -158.803598 
L 142.355384 -158.794685 
L 142.998505 -158.795308 
L 143.641626 -158.797004 
L 144.284747 -158.817768 
L 144.927868 -158.815896 
L 145.570989 -158.811798 
L 146.21411 -158.816631 
L 146.857231 -158.822459 
L 147.500352 -158.820425 
L 148.143473 -158.82819 
L 148.786594 -158.83399 
L 149.429715 -158.83723 
L 150.072836 -158.834401 
L 150.715957 -158.845018 
L 151.359078 -158.847249 
L 152.002199 -158.851205 
L 152.64532 -158.864933 
L 153.28844 -158.853633 
L 153.931561 -158.860775 
L 154.574682 -158.866712 
L 155.217803 -158.865781 
L 155.860924 -158.87745 
L 156.504045 -158.879345 
L 157.147166 -158.878347 
L 157.790287 -158.880203 
L 158.433408 -158.886833 
L 159.076529 -158.886692 
L 159.71965 -158.891152 
L 160.362771 -158.876872 
L 161.005892 -158.895516 
L 161.649013 -158.894295 
L 162.292134 -158.900486 
L 162.935255 -158.907756 
L 163.578376 -158.902887 
L 164.221496 -158.909861 
L 164.864617 -158.911414 
L 165.507738 -158.918256 
L 166.150859 -158.916992 
L 166.79398 -158.924683 
L 167.437101 -158.932237 
L 168.080222 -158.937813 
L 168.723343 -158.937406 
L 169.366464 -158.937732 
L 170.009585 -158.940809 
L 170.652706 -158.94633 
L 171.295827 -158.949129 
L 171.938948 -158.945242 
L 172.582069 -158.953205 
L 173.22519 -158.953533 
L 173.868311 -158.958033 
L 174.511432 -158.957427 
L 175.154552 -158.954397 
L 175.797673 -158.948175 
L 176.440794 -158.950147 
L 177.083915 -158.956054 
L 177.727036 -158.957123 
L 178.370157 -158.963006 
L 179.013278 -158.972756 
L 179.656399 -158.964209 
L 180.29952 -158.965164 
L 180.942641 -158.961543 
L 181.585762 -158.96565 
L 182.228883 -158.96206 
L 182.872004 -158.962275 
L 183.515125 -158.97008 
L 184.158246 -158.972274 
L 184.801367 -158.970522 
L 185.444488 -158.96619 
L 186.087608 -158.967839 
L 186.730729 -158.970949 
L 187.37385 -158.97858 
L 188.016971 -158.978702 
L 188.660092 -158.970073 
L 189.303213 -158.978997 
L 189.946334 -158.980502 
L 190.589455 -158.982039 
L 191.232576 -158.980793 
L 191.875697 -158.985051 
L 192.518818 -158.981096 
L 193.161939 -158.988965 
L 193.80506 -158.989772 
L 194.448181 -158.99057 
L 195.091302 -159.001048 
L 195.734423 -159.005265 
L 196.377544 -159.00456 
L 197.020664 -159.011449 
L 197.663785 -159.007331 
L 198.306906 -159.005945 
L 198.950027 -159.007936 
L 199.593148 -159.010561 
L 200.236269 -159.019378 
L 200.87939 -159.016624 
L 201.522511 -159.022585 
L 202.165632 -159.023128 
L 202.808753 -159.021104 
L 203.451874 -159.025616 
L 204.094995 -159.035335 
L 204.738116 -159.039749 
L 205.381237 -159.049268 
L 206.024358 -159.045882 
L 206.667479 -159.049509 
L 207.3106 -159.054479 
L 207.95372 -159.050436 
L 208.596841 -159.057798 
L 209.239962 -159.053202 
L 209.883083 -159.056766 
L 210.526204 -159.057781 
L 211.169325 -159.05691 
L 211.812446 -159.059171 
L 212.455567 -159.058944 
L 213.098688 -159.06485 
L 213.741809 -159.063392 
L 214.38493 -159.0698 
L 215.028051 -159.076239 
L 215.671172 -159.077727 
L 216.314293 -159.078677 
L 216.957414 -159.080734 
L 217.600535 -159.075649 
L 218.243656 -159.080103 
L 218.886776 -159.081574 
L 219.529897 -159.085408 
L 220.173018 -159.089171 
L 220.816139 -159.095808 
L 221.45926 -159.098402 
L 222.102381 -159.098596 
L 222.745502 -159.1051 
L 223.388623 -159.104164 
L 224.031744 -159.104361 
L 224.674865 -159.108554 
L 225.317986 -159.114959 
L 225.961107 -159.12132 
L 226.604228 -159.120869 
L 227.247349 -159.126013 
L 227.89047 -159.126695 
L 228.533591 -159.134552 
L 229.176712 -159.137354 
L 229.819832 -159.141885 
L 230.462953 -159.145762 
L 231.106074 -159.147976 
L 231.749195 -159.152908 
L 232.392316 -159.16161 
L 233.035437 -159.169169 
L 233.678558 -159.176116 
L 234.321679 -159.185194 
L 234.9648 -159.208131 
L 234.9648 -159.208131 
L 234.9648 -159.208131 
L 234.321679 -159.232081 
L 233.678558 -159.241585 
L 233.035437 -159.247903 
L 232.392316 -159.256462 
L 231.749195 -159.258514 
L 231.106074 -159.264996 
L 230.462953 -159.272575 
L 229.819832 -159.277486 
L 229.176712 -159.279644 
L 228.533591 -159.281282 
L 227.89047 -159.28963 
L 227.247349 -159.291902 
L 226.604228 -159.295251 
L 225.961107 -159.29643 
L 225.317986 -159.298678 
L 224.674865 -159.304962 
L 224.031744 -159.309591 
L 223.388623 -159.309077 
L 222.745502 -159.313217 
L 222.102381 -159.31618 
L 221.45926 -159.317463 
L 220.816139 -159.32402 
L 220.173018 -159.327093 
L 219.529897 -159.330153 
L 218.886776 -159.332047 
L 218.243656 -159.332813 
L 217.600535 -159.332973 
L 216.957414 -159.33793 
L 216.314293 -159.336931 
L 215.671172 -159.338939 
L 215.028051 -159.343361 
L 214.38493 -159.347837 
L 213.741809 -159.346847 
L 213.098688 -159.350761 
L 212.455567 -159.354121 
L 211.812446 -159.361216 
L 211.169325 -159.364666 
L 210.526204 -159.366167 
L 209.883083 -159.369669 
L 209.239962 -159.375 
L 208.596841 -159.373454 
L 207.95372 -159.377608 
L 207.3106 -159.379296 
L 206.667479 -159.370091 
L 206.024358 -159.375543 
L 205.381237 -159.3837 
L 204.738116 -159.389963 
L 204.094995 -159.382558 
L 203.451874 -159.388216 
L 202.808753 -159.38538 
L 202.165632 -159.395726 
L 201.522511 -159.391575 
L 200.87939 -159.395322 
L 200.236269 -159.395139 
L 199.593148 -159.409118 
L 198.950027 -159.406266 
L 198.306906 -159.409531 
L 197.663785 -159.411466 
L 197.020664 -159.412061 
L 196.377544 -159.408512 
L 195.734423 -159.411113 
L 195.091302 -159.415161 
L 194.448181 -159.414347 
L 193.80506 -159.413542 
L 193.161939 -159.414094 
L 192.518818 -159.419714 
L 191.875697 -159.426061 
L 191.232576 -159.426018 
L 190.589455 -159.433166 
L 189.946334 -159.435319 
L 189.303213 -159.439765 
L 188.660092 -159.441937 
L 188.016971 -159.450032 
L 187.37385 -159.45606 
L 186.730729 -159.456915 
L 186.087608 -159.451777 
L 185.444488 -159.456403 
L 184.801367 -159.456668 
L 184.158246 -159.46795 
L 183.515125 -159.467389 
L 182.872004 -159.472908 
L 182.228883 -159.470794 
L 181.585762 -159.473321 
L 180.942641 -159.470365 
L 180.29952 -159.468211 
L 179.656399 -159.469995 
L 179.013278 -159.472493 
L 178.370157 -159.476657 
L 177.727036 -159.481751 
L 177.083915 -159.486022 
L 176.440794 -159.481478 
L 175.797673 -159.483541 
L 175.154552 -159.495055 
L 174.511432 -159.488791 
L 173.868311 -159.485766 
L 173.22519 -159.494442 
L 172.582069 -159.506499 
L 171.938948 -159.504383 
L 171.295827 -159.508206 
L 170.652706 -159.51459 
L 170.009585 -159.513303 
L 169.366464 -159.515486 
L 168.723343 -159.515082 
L 168.080222 -159.526164 
L 167.437101 -159.519624 
L 166.79398 -159.526315 
L 166.150859 -159.524204 
L 165.507738 -159.52739 
L 164.864617 -159.531597 
L 164.221496 -159.54772 
L 163.578376 -159.550361 
L 162.935255 -159.552944 
L 162.292134 -159.549888 
L 161.649013 -159.558055 
L 161.005892 -159.555078 
L 160.362771 -159.554048 
L 159.71965 -159.549888 
L 159.076529 -159.553585 
L 158.433408 -159.55631 
L 157.790287 -159.548343 
L 157.147166 -159.557864 
L 156.504045 -159.557893 
L 155.860924 -159.556917 
L 155.217803 -159.560483 
L 154.574682 -159.563421 
L 153.931561 -159.57027 
L 153.28844 -159.583331 
L 152.64532 -159.593688 
L 152.002199 -159.59165 
L 151.359078 -159.591718 
L 150.715957 -159.591812 
L 150.072836 -159.597173 
L 149.429715 -159.599464 
L 148.786594 -159.59533 
L 148.143473 -159.607391 
L 147.500352 -159.612886 
L 146.857231 -159.608933 
L 146.21411 -159.616707 
L 145.570989 -159.618253 
L 144.927868 -159.630765 
L 144.284747 -159.622041 
L 143.641626 -159.615553 
L 142.998505 -159.611336 
L 142.355384 -159.62767 
L 141.712264 -159.636183 
L 141.069143 -159.635514 
L 140.426022 -159.640759 
L 139.782901 -159.65794 
L 139.13978 -159.658634 
L 138.496659 -159.653163 
L 137.853538 -159.646381 
L 137.210417 -159.659342 
L 136.567296 -159.665066 
L 135.924175 -159.675803 
L 135.281054 -159.681679 
L 134.637933 -159.686482 
L 133.994812 -159.665428 
L 133.351691 -159.677961 
L 132.70857 -159.656641 
L 132.065449 -159.669168 
L 131.422328 -159.659244 
L 130.779208 -159.66799 
L 130.136087 -159.656807 
L 129.492966 -159.668286 
L 128.849845 -159.66777 
L 128.206724 -159.670117 
L 127.563603 -159.67656 
L 126.920482 -159.683276 
L 126.277361 -159.698751 
L 125.63424 -159.695699 
L 124.991119 -159.704149 
L 124.347998 -159.721817 
L 123.704877 -159.712707 
L 123.061756 -159.717141 
L 122.418635 -159.720215 
L 121.775514 -159.714223 
L 121.132393 -159.721656 
L 120.489272 -159.72794 
L 119.846152 -159.716807 
L 119.203031 -159.723218 
L 118.55991 -159.726438 
L 117.916789 -159.723145 
L 117.273668 -159.756851 
L 116.630547 -159.76068 
L 115.987426 -159.762775 
L 115.344305 -159.761425 
L 114.701184 -159.765484 
L 114.058063 -159.774975 
L 113.414942 -159.793654 
L 112.771821 -159.798279 
L 112.1287 -159.799208 
L 111.485579 -159.811524 
L 110.842458 -159.814719 
L 110.199337 -159.82157 
L 109.556216 -159.822965 
L 108.913096 -159.82012 
L 108.269975 -159.815581 
L 107.626854 -159.845716 
L 106.983733 -159.849563 
L 106.340612 -159.859526 
L 105.697491 -159.863693 
L 105.05437 -159.872161 
L 104.411249 -159.901222 
L 103.768128 -159.917025 
L 103.125007 -159.908669 
L 102.481886 -159.900277 
L 101.838765 -159.917247 
L 101.195644 -159.912964 
L 100.552523 -159.925745 
L 99.909402 -159.941555 
L 99.266281 -159.940221 
L 98.62316 -159.977613 
L 97.98004 -159.956078 
L 97.336919 -159.96798 
L 96.693798 -159.978237 
L 96.050677 -160.002013 
L 95.407556 -159.996244 
L 94.764435 -160.027466 
L 94.121314 -160.030571 
L 93.478193 -160.024875 
L 92.835072 -160.03725 
L 92.191951 -160.040854 
L 91.54883 -160.032153 
L 90.905709 -160.064912 
L 90.262588 -160.082669 
L 89.619467 -160.097874 
L 88.976346 -160.127895 
L 88.333225 -160.109486 
L 87.690104 -160.118934 
L 87.046984 -160.128967 
L 86.403863 -160.159377 
L 85.760742 -160.179084 
L 85.117621 -160.159218 
L 84.4745 -160.167714 
L 83.831379 -160.198389 
L 83.188258 -160.221959 
L 82.545137 -160.223632 
L 81.902016 -160.240457 
L 81.258895 -160.238341 
L 80.615774 -160.321775 
L 79.972653 -160.296588 
L 79.329532 -160.34054 
L 78.686411 -160.375621 
L 78.04329 -160.425231 
L 77.400169 -160.430918 
L 76.757048 -160.455601 
L 76.113928 -160.469807 
L 75.470807 -160.513105 
L 74.827686 -160.576076 
L 74.184565 -160.600088 
L 73.541444 -160.640742 
L 72.898323 -160.713994 
L 72.255202 -160.674791 
L 71.612081 -160.7908 
L 70.96896 -160.849126 
z
"/>
    </defs>
    <g clip-path="url(#p7853bd6385)">
     <use xlink:href="#mac56470a8a" x="0" y="226.8" style="fill: #b8b8b8; fill-opacity: 0.25"/>
    </g>
   </g>
   <g id="FillBetweenPolyCollection_2">
    <defs>
     <path id="mef9d492c91" d="M 70.96896 -159.029291 
L 70.96896 -154.11334 
L 71.612081 -154.272378 
L 72.255202 -154.37828 
L 72.898323 -154.560101 
L 73.541444 -154.650185 
L 74.184565 -154.708735 
L 74.827686 -154.764878 
L 75.470807 -154.724963 
L 76.113928 -154.62124 
L 76.757048 -154.666696 
L 77.400169 -154.618941 
L 78.04329 -154.534667 
L 78.686411 -154.489251 
L 79.329532 -154.544745 
L 79.972653 -154.502403 
L 80.615774 -154.440466 
L 81.258895 -154.449412 
L 81.902016 -154.616318 
L 82.545137 -154.677969 
L 83.188258 -154.569306 
L 83.831379 -154.541707 
L 84.4745 -154.570984 
L 85.117621 -154.57333 
L 85.760742 -154.611088 
L 86.403863 -154.587688 
L 87.046984 -154.63792 
L 87.690104 -154.64776 
L 88.333225 -154.735141 
L 88.976346 -154.721869 
L 89.619467 -154.696305 
L 90.262588 -154.748843 
L 90.905709 -154.748859 
L 91.54883 -154.700428 
L 92.191951 -154.683849 
L 92.835072 -154.686277 
L 93.478193 -154.746623 
L 94.121314 -154.854643 
L 94.764435 -154.864249 
L 95.407556 -154.862283 
L 96.050677 -154.908462 
L 96.693798 -154.958764 
L 97.336919 -154.974397 
L 97.98004 -154.983467 
L 98.62316 -155.003194 
L 99.266281 -154.98759 
L 99.909402 -154.998965 
L 100.552523 -155.000539 
L 101.195644 -154.986625 
L 101.838765 -155.038828 
L 102.481886 -155.037035 
L 103.125007 -155.064929 
L 103.768128 -155.09405 
L 104.411249 -155.11798 
L 105.05437 -155.133817 
L 105.697491 -155.12356 
L 106.340612 -155.150931 
L 106.983733 -155.187126 
L 107.626854 -155.273851 
L 108.269975 -155.301023 
L 108.913096 -155.354492 
L 109.556216 -155.349785 
L 110.199337 -155.34345 
L 110.842458 -155.338209 
L 111.485579 -155.364979 
L 112.1287 -155.450516 
L 112.771821 -155.442799 
L 113.414942 -155.495304 
L 114.058063 -155.51576 
L 114.701184 -155.506524 
L 115.344305 -155.500596 
L 115.987426 -155.510851 
L 116.630547 -155.528758 
L 117.273668 -155.598113 
L 117.916789 -155.589707 
L 118.55991 -155.622081 
L 119.203031 -155.64384 
L 119.846152 -155.692742 
L 120.489272 -155.718922 
L 121.132393 -155.723386 
L 121.775514 -155.724198 
L 122.418635 -155.771429 
L 123.061756 -155.75668 
L 123.704877 -155.810332 
L 124.347998 -155.852793 
L 124.991119 -155.840091 
L 125.63424 -155.863333 
L 126.277361 -155.906324 
L 126.920482 -155.930357 
L 127.563603 -155.931545 
L 128.206724 -155.926929 
L 128.849845 -155.920773 
L 129.492966 -155.95052 
L 130.136087 -155.948653 
L 130.779208 -155.956626 
L 131.422328 -155.980587 
L 132.065449 -156.001746 
L 132.70857 -156.013468 
L 133.351691 -156.037096 
L 133.994812 -156.076489 
L 134.637933 -156.100811 
L 135.281054 -156.112018 
L 135.924175 -156.155436 
L 136.567296 -156.168926 
L 137.210417 -156.175845 
L 137.853538 -156.19843 
L 138.496659 -156.222091 
L 139.13978 -156.215033 
L 139.782901 -156.230278 
L 140.426022 -156.255509 
L 141.069143 -156.232603 
L 141.712264 -156.259942 
L 142.355384 -156.312272 
L 142.998505 -156.293138 
L 143.641626 -156.325443 
L 144.284747 -156.361341 
L 144.927868 -156.370095 
L 145.570989 -156.404859 
L 146.21411 -156.425099 
L 146.857231 -156.449369 
L 147.500352 -156.444415 
L 148.143473 -156.446155 
L 148.786594 -156.465246 
L 149.429715 -156.507125 
L 150.072836 -156.520738 
L 150.715957 -156.535567 
L 151.359078 -156.558921 
L 152.002199 -156.551431 
L 152.64532 -156.564775 
L 153.28844 -156.576849 
L 153.931561 -156.586509 
L 154.574682 -156.597665 
L 155.217803 -156.601584 
L 155.860924 -156.600758 
L 156.504045 -156.60774 
L 157.147166 -156.636093 
L 157.790287 -156.660354 
L 158.433408 -156.66891 
L 159.076529 -156.703093 
L 159.71965 -156.70234 
L 160.362771 -156.740824 
L 161.005892 -156.787105 
L 161.649013 -156.794046 
L 162.292134 -156.808533 
L 162.935255 -156.837206 
L 163.578376 -156.834797 
L 164.221496 -156.823013 
L 164.864617 -156.831521 
L 165.507738 -156.83159 
L 166.150859 -156.851532 
L 166.79398 -156.858325 
L 167.437101 -156.869655 
L 168.080222 -156.873433 
L 168.723343 -156.882689 
L 169.366464 -156.909528 
L 170.009585 -156.911222 
L 170.652706 -156.924267 
L 171.295827 -156.958867 
L 171.938948 -157.012569 
L 172.582069 -157.019098 
L 173.22519 -157.034935 
L 173.868311 -157.034826 
L 174.511432 -157.044858 
L 175.154552 -157.053463 
L 175.797673 -157.063007 
L 176.440794 -157.085027 
L 177.083915 -157.09623 
L 177.727036 -157.097971 
L 178.370157 -157.10076 
L 179.013278 -157.115949 
L 179.656399 -157.119495 
L 180.29952 -157.122074 
L 180.942641 -157.153333 
L 181.585762 -157.17305 
L 182.228883 -157.192042 
L 182.872004 -157.188872 
L 183.515125 -157.18061 
L 184.158246 -157.201246 
L 184.801367 -157.229274 
L 185.444488 -157.249591 
L 186.087608 -157.286344 
L 186.730729 -157.276447 
L 187.37385 -157.291969 
L 188.016971 -157.301477 
L 188.660092 -157.303204 
L 189.303213 -157.322607 
L 189.946334 -157.338384 
L 190.589455 -157.338298 
L 191.232576 -157.357779 
L 191.875697 -157.382571 
L 192.518818 -157.38951 
L 193.161939 -157.39846 
L 193.80506 -157.422371 
L 194.448181 -157.437925 
L 195.091302 -157.468715 
L 195.734423 -157.480576 
L 196.377544 -157.495644 
L 197.020664 -157.510417 
L 197.663785 -157.540184 
L 198.306906 -157.523032 
L 198.950027 -157.541195 
L 199.593148 -157.56928 
L 200.236269 -157.577664 
L 200.87939 -157.58215 
L 201.522511 -157.60784 
L 202.165632 -157.619328 
L 202.808753 -157.643141 
L 203.451874 -157.682353 
L 204.094995 -157.701555 
L 204.738116 -157.716802 
L 205.381237 -157.719469 
L 206.024358 -157.730198 
L 206.667479 -157.734083 
L 207.3106 -157.76965 
L 207.95372 -157.763331 
L 208.596841 -157.762413 
L 209.239962 -157.776652 
L 209.883083 -157.784046 
L 210.526204 -157.782678 
L 211.169325 -157.815776 
L 211.812446 -157.830025 
L 212.455567 -157.844174 
L 213.098688 -157.862136 
L 213.741809 -157.881791 
L 214.38493 -157.883219 
L 215.028051 -157.884711 
L 215.671172 -157.884449 
L 216.314293 -157.911985 
L 216.957414 -157.92999 
L 217.600535 -157.939114 
L 218.243656 -157.953237 
L 218.886776 -157.966237 
L 219.529897 -157.978871 
L 220.173018 -157.982342 
L 220.816139 -158.016862 
L 221.45926 -158.039071 
L 222.102381 -158.050108 
L 222.745502 -158.064761 
L 223.388623 -158.067295 
L 224.031744 -158.088482 
L 224.674865 -158.117031 
L 225.317986 -158.133114 
L 225.961107 -158.124327 
L 226.604228 -158.152776 
L 227.247349 -158.179958 
L 227.89047 -158.20111 
L 228.533591 -158.218279 
L 229.176712 -158.229329 
L 229.819832 -158.263468 
L 230.462953 -158.273687 
L 231.106074 -158.305579 
L 231.749195 -158.327541 
L 232.392316 -158.342691 
L 233.035437 -158.379068 
L 233.678558 -158.40264 
L 234.321679 -158.423954 
L 234.9648 -158.424817 
L 234.9648 -159.958462 
L 234.9648 -159.958462 
L 234.321679 -159.95411 
L 233.678558 -159.953904 
L 233.035437 -159.934157 
L 232.392316 -159.921868 
L 231.749195 -159.910224 
L 231.106074 -159.882375 
L 230.462953 -159.869214 
L 229.819832 -159.859181 
L 229.176712 -159.830746 
L 228.533591 -159.821408 
L 227.89047 -159.80504 
L 227.247349 -159.788992 
L 226.604228 -159.764944 
L 225.961107 -159.749962 
L 225.317986 -159.752218 
L 224.674865 -159.745634 
L 224.031744 -159.718393 
L 223.388623 -159.702616 
L 222.745502 -159.689203 
L 222.102381 -159.682694 
L 221.45926 -159.668387 
L 220.816139 -159.655047 
L 220.173018 -159.623926 
L 219.529897 -159.607158 
L 218.886776 -159.599461 
L 218.243656 -159.577091 
L 217.600535 -159.560531 
L 216.957414 -159.55591 
L 216.314293 -159.533668 
L 215.671172 -159.524541 
L 215.028051 -159.523096 
L 214.38493 -159.533279 
L 213.741809 -159.545851 
L 213.098688 -159.533295 
L 212.455567 -159.523421 
L 211.812446 -159.503451 
L 211.169325 -159.495707 
L 210.526204 -159.465914 
L 209.883083 -159.457482 
L 209.239962 -159.464198 
L 208.596841 -159.446371 
L 207.95372 -159.457661 
L 207.3106 -159.455559 
L 206.667479 -159.443406 
L 206.024358 -159.433591 
L 205.381237 -159.437391 
L 204.738116 -159.428941 
L 204.094995 -159.409978 
L 203.451874 -159.389838 
L 202.808753 -159.353422 
L 202.165632 -159.341282 
L 201.522511 -159.325292 
L 200.87939 -159.328812 
L 200.236269 -159.329785 
L 199.593148 -159.324239 
L 198.950027 -159.294518 
L 198.306906 -159.290481 
L 197.663785 -159.289142 
L 197.020664 -159.266366 
L 196.377544 -159.266412 
L 195.734423 -159.255728 
L 195.091302 -159.25748 
L 194.448181 -159.230601 
L 193.80506 -159.220083 
L 193.161939 -159.203856 
L 192.518818 -159.211783 
L 191.875697 -159.193884 
L 191.232576 -159.188993 
L 190.589455 -159.175393 
L 189.946334 -159.17363 
L 189.303213 -159.160011 
L 188.660092 -159.151514 
L 188.016971 -159.151898 
L 187.37385 -159.138022 
L 186.730729 -159.139765 
L 186.087608 -159.147473 
L 185.444488 -159.142387 
L 184.801367 -159.111463 
L 184.158246 -159.095697 
L 183.515125 -159.096481 
L 182.872004 -159.108319 
L 182.228883 -159.105536 
L 181.585762 -159.092555 
L 180.942641 -159.064983 
L 180.29952 -159.064006 
L 179.656399 -159.058527 
L 179.013278 -159.065723 
L 178.370157 -159.048794 
L 177.727036 -159.044212 
L 177.083915 -159.045966 
L 176.440794 -159.046448 
L 175.797673 -159.037262 
L 175.154552 -159.040392 
L 174.511432 -159.032633 
L 173.868311 -159.032276 
L 173.22519 -159.024089 
L 172.582069 -159.021189 
L 171.938948 -159.010666 
L 171.295827 -158.999588 
L 170.652706 -158.971641 
L 170.009585 -158.959123 
L 169.366464 -158.967914 
L 168.723343 -158.961215 
L 168.080222 -158.956255 
L 167.437101 -158.946182 
L 166.79398 -158.962501 
L 166.150859 -158.940755 
L 165.507738 -158.935934 
L 164.864617 -158.95223 
L 164.221496 -158.955252 
L 163.578376 -158.910109 
L 162.935255 -158.919381 
L 162.292134 -158.903483 
L 161.649013 -158.891451 
L 161.005892 -158.874999 
L 160.362771 -158.840125 
L 159.71965 -158.831423 
L 159.076529 -158.816001 
L 158.433408 -158.796371 
L 157.790287 -158.776383 
L 157.147166 -158.775983 
L 156.504045 -158.767014 
L 155.860924 -158.756085 
L 155.217803 -158.756523 
L 154.574682 -158.741646 
L 153.931561 -158.753567 
L 153.28844 -158.765312 
L 152.64532 -158.756395 
L 152.002199 -158.744148 
L 151.359078 -158.741471 
L 150.715957 -158.747689 
L 150.072836 -158.744909 
L 149.429715 -158.694315 
L 148.786594 -158.669258 
L 148.143473 -158.669046 
L 147.500352 -158.670446 
L 146.857231 -158.680041 
L 146.21411 -158.647486 
L 145.570989 -158.638927 
L 144.927868 -158.618919 
L 144.284747 -158.605182 
L 143.641626 -158.594233 
L 142.998505 -158.572546 
L 142.355384 -158.568415 
L 141.712264 -158.559723 
L 141.069143 -158.563615 
L 140.426022 -158.548778 
L 139.782901 -158.531819 
L 139.13978 -158.553609 
L 138.496659 -158.53489 
L 137.853538 -158.554218 
L 137.210417 -158.535998 
L 136.567296 -158.567044 
L 135.924175 -158.553361 
L 135.281054 -158.522855 
L 134.637933 -158.504314 
L 133.994812 -158.482609 
L 133.351691 -158.447377 
L 132.70857 -158.424417 
L 132.065449 -158.415322 
L 131.422328 -158.384972 
L 130.779208 -158.398539 
L 130.136087 -158.404954 
L 129.492966 -158.423064 
L 128.849845 -158.435665 
L 128.206724 -158.431809 
L 127.563603 -158.433039 
L 126.920482 -158.450068 
L 126.277361 -158.408406 
L 125.63424 -158.368785 
L 124.991119 -158.371566 
L 124.347998 -158.350772 
L 123.704877 -158.319493 
L 123.061756 -158.29385 
L 122.418635 -158.249288 
L 121.775514 -158.263219 
L 121.132393 -158.280224 
L 120.489272 -158.288129 
L 119.846152 -158.240582 
L 119.203031 -158.227729 
L 118.55991 -158.205763 
L 117.916789 -158.203706 
L 117.273668 -158.187367 
L 116.630547 -158.164061 
L 115.987426 -158.152366 
L 115.344305 -158.150699 
L 114.701184 -158.148481 
L 114.058063 -158.180499 
L 113.414942 -158.15712 
L 112.771821 -158.167825 
L 112.1287 -158.157928 
L 111.485579 -158.151658 
L 110.842458 -158.099679 
L 110.199337 -158.135015 
L 109.556216 -158.158842 
L 108.913096 -158.156145 
L 108.269975 -158.139621 
L 107.626854 -158.091957 
L 106.983733 -158.062898 
L 106.340612 -158.02342 
L 105.697491 -158.017169 
L 105.05437 -158.002571 
L 104.411249 -158.025593 
L 103.768128 -158.011223 
L 103.125007 -157.984432 
L 102.481886 -158.005638 
L 101.838765 -157.987019 
L 101.195644 -158.001165 
L 100.552523 -158.002229 
L 99.909402 -158.037597 
L 99.266281 -158.060236 
L 98.62316 -158.038347 
L 97.98004 -158.045688 
L 97.336919 -158.033833 
L 96.693798 -158.016442 
L 96.050677 -158.032655 
L 95.407556 -158.05905 
L 94.764435 -158.060847 
L 94.121314 -157.950182 
L 93.478193 -157.955791 
L 92.835072 -157.949094 
L 92.191951 -157.929987 
L 91.54883 -157.910967 
L 90.905709 -158.013602 
L 90.262588 -158.020004 
L 89.619467 -158.072668 
L 88.976346 -158.077717 
L 88.333225 -158.088587 
L 87.690104 -158.048116 
L 87.046984 -158.076085 
L 86.403863 -158.076788 
L 85.760742 -158.069721 
L 85.117621 -158.055834 
L 84.4745 -157.996195 
L 83.831379 -158.062994 
L 83.188258 -158.158397 
L 82.545137 -158.258484 
L 81.902016 -158.195469 
L 81.258895 -158.106285 
L 80.615774 -158.278433 
L 79.972653 -158.447906 
L 79.329532 -158.521354 
L 78.686411 -158.537528 
L 78.04329 -158.640336 
L 77.400169 -158.777633 
L 76.757048 -158.843845 
L 76.113928 -158.850847 
L 75.470807 -158.987806 
L 74.827686 -159.065296 
L 74.184565 -159.056576 
L 73.541444 -159.042473 
L 72.898323 -159.075187 
L 72.255202 -159.091999 
L 71.612081 -159.023674 
L 70.96896 -159.029291 
z
"/>
    </defs>
    <g clip-path="url(#p7853bd6385)">
     <use xlink:href="#mef9d492c91" x="0" y="226.8" style="fill: #333333; fill-opacity: 0.14"/>
    </g>
   </g>
   <g id="line2d_1">
    <path d="M 62.3376 67.591869 
L 234.9648 67.591869 
" clip-path="url(#p7853bd6385)" style="fill: none; stroke-dasharray: 3.6,1.8; stroke-dashoffset: 0; stroke: #7a7a7a; stroke-width: 0.9"/>
   </g>
   <g id="matplotlib.axis_1">
    <g id="xtick_1"/>
    <g id="xtick_2"/>
    <g id="xtick_3"/>
    <g id="xtick_4"/>
    <g id="xtick_5"/>
    <g id="xtick_6"/>
   </g>
   <g id="matplotlib.axis_2">
    <g id="ytick_1">
     <g id="line2d_2">
      <defs>
       <path id="ma52d98824d" d="M 0 0 
L -3.5 0 
" style="stroke: #333333; stroke-width: 0.8"/>
      </defs>
      <g>
       <use xlink:href="#ma52d98824d" x="62.3376" y="145.590273" style="fill: #333333; stroke: #333333; stroke-width: 0.8"/>
      </g>
     </g>
     <g id="text_1">
      <text style="font-size: 7px; font-family: 'Arial', 'Helvetica', 'DejaVu Sans', sans-serif; text-anchor: end; fill: #333333" x="55.3376" y="148.095507" transform="rotate(-0 55.3376 148.095507)">0.0</text>
     </g>
    </g>
    <g id="ytick_2">
     <g id="line2d_3">
      <g>
       <use xlink:href="#ma52d98824d" x="62.3376" y="129.368297" style="fill: #333333; stroke: #333333; stroke-width: 0.8"/>
      </g>
     </g>
     <g id="text_2">
      <text style="font-size: 7px; font-family: 'Arial', 'Helvetica', 'DejaVu Sans', sans-serif; text-anchor: end; fill: #333333" x="55.3376" y="131.873532" transform="rotate(-0 55.3376 131.873532)">0.1</text>
     </g>
    </g>
    <g id="ytick_3">
     <g id="line2d_4">
      <g>
       <use xlink:href="#ma52d98824d" x="62.3376" y="113.146322" style="fill: #333333; stroke: #333333; stroke-width: 0.8"/>
      </g>
     </g>
     <g id="text_3">
      <text style="font-size: 7px; font-family: 'Arial', 'Helvetica', 'DejaVu Sans', sans-serif; text-anchor: end; fill: #333333" x="55.3376" y="115.651556" transform="rotate(-0 55.3376 115.651556)">0.2</text>
     </g>
    </g>
    <g id="ytick_4">
     <g id="line2d_5">
      <g>
       <use xlink:href="#ma52d98824d" x="62.3376" y="96.924346" style="fill: #333333; stroke: #333333; stroke-width: 0.8"/>
      </g>
     </g>
     <g id="text_4">
      <text style="font-size: 7px; font-family: 'Arial', 'Helvetica', 'DejaVu Sans', sans-serif; text-anchor: end; fill: #333333" x="55.3376" y="99.429581" transform="rotate(-0 55.3376 99.429581)">0.3</text>
     </g>
    </g>
    <g id="ytick_5">
     <g id="line2d_6">
      <g>
       <use xlink:href="#ma52d98824d" x="62.3376" y="80.702371" style="fill: #333333; stroke: #333333; stroke-width: 0.8"/>
      </g>
     </g>
     <g id="text_5">
      <text style="font-size: 7px; font-family: 'Arial', 'Helvetica', 'DejaVu Sans', sans-serif; text-anchor: end; fill: #333333" x="55.3376" y="83.207605" transform="rotate(-0 55.3376 83.207605)">0.4</text>
     </g>
    </g>
    <g id="ytick_6">
     <g id="line2d_7">
      <g>
       <use xlink:href="#ma52d98824d" x="62.3376" y="64.480395" style="fill: #333333; stroke: #333333; stroke-width: 0.8"/>
      </g>
     </g>
     <g id="text_6">
      <text style="font-size: 7px; font-family: 'Arial', 'Helvetica', 'DejaVu Sans', sans-serif; text-anchor: end; fill: #333333" x="55.3376" y="66.985629" transform="rotate(-0 55.3376 66.985629)">0.5</text>
     </g>
    </g>
    <g id="text_7">
     <text style="font-size: 8px; font-family: 'Arial', 'Helvetica', 'DejaVu Sans', sans-serif; text-anchor: middle; fill: #333333" x="38.0176" y="104.224235" transform="rotate(-90 38.0176 104.224235)">Selective risk</text>
    </g>
   </g>
   <g id="line2d_8">
    <path d="M 70.96896 70.335014 
L 73.541444 69.943367 
L 74.827686 69.882251 
L 76.757048 70.109445 
L 77.400169 70.08009 
L 78.686411 70.251827 
L 79.329532 70.237597 
L 81.258895 70.588937 
L 81.902016 70.40513 
L 82.545137 70.346896 
L 84.4745 70.522267 
L 85.117621 70.433071 
L 87.690104 70.494445 
L 88.976346 70.385854 
L 90.905709 70.477393 
L 94.121314 70.422013 
L 95.407556 70.332936 
L 98.62316 70.2942 
L 99.909402 70.34433 
L 103.125007 70.340093 
L 106.983733 70.189537 
L 110.842458 70.073584 
L 119.846152 69.853795 
L 121.132393 69.794047 
L 123.061756 69.805934 
L 127.563603 69.621658 
L 135.281054 69.499505 
L 138.496659 69.436131 
L 152.002199 69.185435 
L 154.574682 69.151673 
L 159.71965 69.04793 
L 164.864617 68.90563 
L 180.942641 68.676952 
L 188.016971 68.554688 
L 190.589455 68.541491 
L 197.663785 68.402025 
L 201.522511 68.324855 
L 207.95372 68.1824 
L 213.098688 68.098959 
L 234.9648 67.591869 
L 234.9648 67.591869 
" clip-path="url(#p7853bd6385)" style="fill: none; stroke: #333333; stroke-width: 1.3; stroke-linecap: square"/>
    <defs>
     <path id="m12e54762bf" d="M -1.65 1.65 
L 1.65 1.65 
L 1.65 -1.65 
L -1.65 -1.65 
z
" style="stroke: #333333; stroke-linejoin: miter"/>
    </defs>
    <g clip-path="url(#p7853bd6385)">
     <use xlink:href="#m12e54762bf" x="70.96896" y="70.335014" style="fill: #333333; stroke: #333333; stroke-linejoin: miter"/>
     <use xlink:href="#m12e54762bf" x="91.54883" y="70.488177" style="fill: #333333; stroke: #333333; stroke-linejoin: miter"/>
     <use xlink:href="#m12e54762bf" x="112.1287" y="70.025145" style="fill: #333333; stroke: #333333; stroke-linejoin: miter"/>
     <use xlink:href="#m12e54762bf" x="132.70857" y="69.58981" style="fill: #333333; stroke: #333333; stroke-linejoin: miter"/>
     <use xlink:href="#m12e54762bf" x="153.28844" y="69.158048" style="fill: #333333; stroke: #333333; stroke-linejoin: miter"/>
     <use xlink:href="#m12e54762bf" x="173.868311" y="68.77111" style="fill: #333333; stroke: #333333; stroke-linejoin: miter"/>
     <use xlink:href="#m12e54762bf" x="194.448181" y="68.458694" style="fill: #333333; stroke: #333333; stroke-linejoin: miter"/>
     <use xlink:href="#m12e54762bf" x="215.028051" y="68.085546" style="fill: #333333; stroke: #333333; stroke-linejoin: miter"/>
    </g>
   </g>
   <g id="line2d_9">
    <path d="M 70.96896 145.590273 
L 152.002199 145.518081 
L 155.217803 139.904371 
L 159.076529 133.660544 
L 162.935255 127.895718 
L 166.79398 122.556809 
L 170.652706 117.598297 
L 174.511432 112.980926 
L 178.370157 108.670662 
L 182.872004 103.990819 
L 187.37385 99.647966 
L 191.875697 95.606968 
L 196.377544 91.83741 
L 201.522511 87.827934 
L 206.667479 84.104311 
L 211.812446 80.637024 
L 217.600535 77.011 
L 223.388623 73.645611 
L 229.819832 70.179106 
L 234.9648 67.591869 
L 234.9648 67.591869 
" clip-path="url(#p7853bd6385)" style="fill: none; stroke-dasharray: 4.81,2.08; stroke-dashoffset: 0; stroke: #2e5a9c; stroke-width: 1.3"/>
    <defs>
     <path id="m88186358b5" d="M 0 -1.75 
L -1.75 1.75 
L 1.75 1.75 
z
" style="stroke: #2e5a9c; stroke-linejoin: miter"/>
    </defs>
    <g clip-path="url(#p7853bd6385)">
     <use xlink:href="#m88186358b5" x="70.96896" y="145.590273" style="fill: #2e5a9c; stroke: #2e5a9c; stroke-linejoin: miter"/>
     <use xlink:href="#m88186358b5" x="91.54883" y="145.590273" style="fill: #2e5a9c; stroke: #2e5a9c; stroke-linejoin: miter"/>
     <use xlink:href="#m88186358b5" x="112.1287" y="145.590273" style="fill: #2e5a9c; stroke: #2e5a9c; stroke-linejoin: miter"/>
     <use xlink:href="#m88186358b5" x="132.70857" y="145.590273" style="fill: #2e5a9c; stroke: #2e5a9c; stroke-linejoin: miter"/>
     <use xlink:href="#m88186358b5" x="153.28844" y="143.224963" style="fill: #2e5a9c; stroke: #2e5a9c; stroke-linejoin: miter"/>
     <use xlink:href="#m88186358b5" x="173.868311" y="113.7283" style="fill: #2e5a9c; stroke: #2e5a9c; stroke-linejoin: miter"/>
     <use xlink:href="#m88186358b5" x="194.448181" y="93.421477" style="fill: #2e5a9c; stroke: #2e5a9c; stroke-linejoin: miter"/>
     <use xlink:href="#m88186358b5" x="215.028051" y="78.588628" style="fill: #2e5a9c; stroke: #2e5a9c; stroke-linejoin: miter"/>
    </g>
   </g>
   <g id="patch_3">
    <path d="M 62.3376 147.212471 
L 62.3376 61.236 
" style="fill: none; stroke: #333333; stroke-width: 0.8; stroke-linejoin: miter; stroke-linecap: square"/>
   </g>
   <g id="patch_4">
    <path d="M 234.9648 147.212471 
L 234.9648 61.236 
" style="fill: none; stroke: #333333; stroke-width: 0.8; stroke-linejoin: miter; stroke-linecap: square"/>
   </g>
   <g id="patch_5">
    <path d="M 62.3376 61.236 
L 234.9648 61.236 
" style="fill: none; stroke: #333333; stroke-width: 0.8; stroke-linejoin: miter; stroke-linecap: square"/>
   </g>
   <g id="text_8">
    <text style="font-weight: 700; font-size: 8px; font-family: 'Arial', 'Helvetica', 'DejaVu Sans', sans-serif; text-anchor: start; fill: #333333" x="32.990976" y="57.832721" transform="rotate(-0 32.990976 57.832721)">(a)</text>
   </g>
   <g id="legend_1">
    <g id="line2d_10">
     <path d="M 65.1376 35.730689 
L 70.2126 35.730689 
L 75.2876 35.730689 
" style="fill: none; stroke: #333333; stroke-width: 1.3; stroke-linecap: square"/>
     <g>
      <use xlink:href="#m12e54762bf" x="70.2126" y="35.730689" style="fill: #333333; stroke: #333333; stroke-linejoin: miter"/>
     </g>
    </g>
    <g id="text_9">
     <text style="font-size: 7px; font-family: 'Arial', 'Helvetica', 'DejaVu Sans', sans-serif; text-anchor: start; fill: #333333" x="80.8876" y="38.180689" transform="rotate(-0 80.8876 38.180689)">Prespecified score (AURC = 0.471)</text>
    </g>
    <g id="line2d_11">
     <path d="M 65.1376 44.264127 
L 70.2126 44.264127 
L 75.2876 44.264127 
" style="fill: none; stroke-dasharray: 4.81,2.08; stroke-dashoffset: 0; stroke: #2e5a9c; stroke-width: 1.3"/>
     <g>
      <use xlink:href="#m88186358b5" x="70.2126" y="44.264127" style="fill: #2e5a9c; stroke: #2e5a9c; stroke-linejoin: miter"/>
     </g>
    </g>
    <g id="text_10">
     <text style="font-size: 7px; font-family: 'Arial', 'Helvetica', 'DejaVu Sans', sans-serif; text-anchor: start; fill: #333333" x="80.8876" y="46.714127" transform="rotate(-0 80.8876 46.714127)">Oracle ranking (AURC = 0.140)</text>
    </g>
    <g id="line2d_12">
     <path d="M 65.1376 52.793189 
L 70.2126 52.793189 
L 75.2876 52.793189 
" style="fill: none; stroke-dasharray: 3.6,1.8; stroke-dashoffset: 0; stroke: #7a7a7a; stroke-width: 0.9"/>
    </g>
    <g id="text_11">
     <text style="font-size: 7px; font-family: 'Arial', 'Helvetica', 'DejaVu Sans', sans-serif; text-anchor: start; fill: #333333" x="80.8876" y="55.243189" transform="rotate(-0 80.8876 55.243189)">Random ranking (AURC = 0.481)</text>
    </g>
   </g>
  </g>
  <g id="axes_2">
   <g id="patch_6">
    <path d="M 62.3376 192.78 
L 234.9648 192.78 
L 234.9648 149.791765 
L 62.3376 149.791765 
z
" style="fill: #ffffff"/>
   </g>
   <g id="line2d_13">
    <path d="M 62.3376 189.082953 
L 234.9648 189.082953 
" clip-path="url(#p1d1ccfc89f)" style="fill: none; stroke-dasharray: 3.2,1.6; stroke-dashoffset: 0; stroke: #7a7a7a; stroke-width: 0.8"/>
   </g>
   <g id="FillBetweenPolyCollection_3">
    <defs>
     <path id="mf4f2515c7b" d="M 70.96896 -73.425882 
L 70.96896 -41.872273 
L 71.612081 -42.273059 
L 72.255202 -40.812591 
L 72.898323 -40.953492 
L 73.541444 -41.205263 
L 74.184565 -41.454666 
L 74.827686 -40.929773 
L 75.470807 -41.787176 
L 76.113928 -43.198104 
L 76.757048 -43.41022 
L 77.400169 -43.84504 
L 78.04329 -45.118915 
L 78.686411 -45.073013 
L 79.329532 -45.042835 
L 79.972653 -45.839565 
L 80.615774 -47.022975 
L 81.258895 -48.258582 
L 81.902016 -47.582959 
L 82.545137 -47.212662 
L 83.188258 -47.625187 
L 83.831379 -48.505031 
L 84.4745 -49.051199 
L 85.117621 -48.3824 
L 85.760742 -49.000333 
L 86.403863 -49.460807 
L 87.046984 -49.649275 
L 87.690104 -49.482835 
L 88.333225 -49.525114 
L 88.976346 -49.530418 
L 89.619467 -49.540241 
L 90.262588 -50.072449 
L 90.905709 -50.364058 
L 91.54883 -50.574226 
L 92.191951 -50.416026 
L 92.835072 -50.304943 
L 93.478193 -50.61282 
L 94.121314 -50.470084 
L 94.764435 -49.669417 
L 95.407556 -49.838347 
L 96.050677 -49.95301 
L 96.693798 -49.994712 
L 97.336919 -50.116973 
L 97.98004 -50.146673 
L 98.62316 -50.150256 
L 99.266281 -49.985144 
L 99.909402 -50.262786 
L 100.552523 -50.477091 
L 101.195644 -50.577458 
L 101.838765 -50.623635 
L 102.481886 -50.486728 
L 103.125007 -50.598743 
L 103.768128 -50.690302 
L 104.411249 -50.640323 
L 105.05437 -50.457649 
L 105.697491 -50.471984 
L 106.340612 -50.530491 
L 106.983733 -50.396164 
L 107.626854 -50.138318 
L 108.269975 -49.860424 
L 108.913096 -49.599325 
L 109.556216 -49.695661 
L 110.199337 -49.840057 
L 110.842458 -49.946721 
L 111.485579 -49.966358 
L 112.1287 -49.716674 
L 112.771821 -49.651193 
L 113.414942 -49.552929 
L 114.058063 -49.44626 
L 114.701184 -49.555137 
L 115.344305 -49.516245 
L 115.987426 -49.487596 
L 116.630547 -49.645485 
L 117.273668 -49.474252 
L 117.916789 -49.341391 
L 118.55991 -49.3285 
L 119.203031 -49.233226 
L 119.846152 -49.181503 
L 120.489272 -48.741456 
L 121.132393 -48.777488 
L 121.775514 -48.860145 
L 122.418635 -48.934276 
L 123.061756 -48.777233 
L 123.704877 -48.683824 
L 124.347998 -48.561691 
L 124.991119 -48.426233 
L 125.63424 -48.263401 
L 126.277361 -48.103721 
L 126.920482 -47.871068 
L 127.563603 -47.823329 
L 128.206724 -47.702061 
L 128.849845 -47.826782 
L 129.492966 -47.987141 
L 130.136087 -47.98592 
L 130.779208 -48.163668 
L 131.422328 -48.177982 
L 132.065449 -48.211141 
L 132.70857 -47.9227 
L 133.351691 -47.89796 
L 133.994812 -47.829665 
L 134.637933 -47.71993 
L 135.281054 -47.553731 
L 135.924175 -47.269219 
L 136.567296 -47.202352 
L 137.210417 -47.13368 
L 137.853538 -47.083934 
L 138.496659 -47.127705 
L 139.13978 -47.097467 
L 139.782901 -47.217598 
L 140.426022 -47.037586 
L 141.069143 -46.956099 
L 141.712264 -47.045536 
L 142.355384 -46.798499 
L 142.998505 -46.896868 
L 143.641626 -46.786708 
L 144.284747 -46.591913 
L 144.927868 -46.479987 
L 145.570989 -46.430083 
L 146.21411 -46.37432 
L 146.857231 -46.235279 
L 147.500352 -46.261055 
L 148.143473 -46.301253 
L 148.786594 -46.29301 
L 149.429715 -46.169668 
L 150.072836 -46.050993 
L 150.715957 -45.981962 
L 151.359078 -45.892029 
L 152.002199 -45.98544 
L 152.64532 -45.797232 
L 153.28844 -45.835236 
L 153.931561 -45.83666 
L 154.574682 -45.786132 
L 155.217803 -45.749745 
L 155.860924 -45.820723 
L 156.504045 -45.795261 
L 157.147166 -45.857075 
L 157.790287 -45.750833 
L 158.433408 -45.521909 
L 159.076529 -45.491086 
L 159.71965 -45.412389 
L 160.362771 -45.188515 
L 161.005892 -44.991391 
L 161.649013 -44.820513 
L 162.292134 -44.714576 
L 162.935255 -44.677397 
L 163.578376 -44.484095 
L 164.221496 -44.556214 
L 164.864617 -44.539969 
L 165.507738 -44.531459 
L 166.150859 -44.479769 
L 166.79398 -44.478026 
L 167.437101 -44.477859 
L 168.080222 -44.420459 
L 168.723343 -44.511669 
L 169.366464 -44.500604 
L 170.009585 -44.563557 
L 170.652706 -44.506605 
L 171.295827 -44.366337 
L 171.938948 -44.159105 
L 172.582069 -44.001766 
L 173.22519 -43.979986 
L 173.868311 -43.969413 
L 174.511432 -43.937179 
L 175.154552 -43.940258 
L 175.797673 -43.884516 
L 176.440794 -43.828059 
L 177.083915 -43.818204 
L 177.727036 -43.851277 
L 178.370157 -43.823106 
L 179.013278 -43.669132 
L 179.656399 -43.669793 
L 180.29952 -43.634456 
L 180.942641 -43.561469 
L 181.585762 -43.431306 
L 182.228883 -43.340368 
L 182.872004 -43.450426 
L 183.515125 -43.488354 
L 184.158246 -43.487665 
L 184.801367 -43.350143 
L 185.444488 -43.173655 
L 186.087608 -43.016785 
L 186.730729 -42.99551 
L 187.37385 -43.027209 
L 188.016971 -42.96444 
L 188.660092 -43.013875 
L 189.303213 -42.942491 
L 189.946334 -42.834112 
L 190.589455 -42.865752 
L 191.232576 -42.733369 
L 191.875697 -42.70944 
L 192.518818 -42.657666 
L 193.161939 -42.642259 
L 193.80506 -42.573788 
L 194.448181 -42.513095 
L 195.091302 -42.352029 
L 195.734423 -42.377547 
L 196.377544 -42.33775 
L 197.020664 -42.286401 
L 197.663785 -42.204517 
L 198.306906 -42.174627 
L 198.950027 -42.128252 
L 199.593148 -41.98153 
L 200.236269 -41.908939 
L 200.87939 -41.888115 
L 201.522511 -41.809168 
L 202.165632 -41.653393 
L 202.808753 -41.494575 
L 203.451874 -41.358414 
L 204.094995 -41.171626 
L 204.738116 -41.124618 
L 205.381237 -41.087633 
L 206.024358 -41.101385 
L 206.667479 -41.065981 
L 207.3106 -40.995659 
L 207.95372 -40.836678 
L 208.596841 -40.950499 
L 209.239962 -40.850594 
L 209.883083 -40.835591 
L 210.526204 -40.875068 
L 211.169325 -40.750458 
L 211.812446 -40.66074 
L 212.455567 -40.518659 
L 213.098688 -40.387399 
L 213.741809 -40.350762 
L 214.38493 -40.380185 
L 215.028051 -40.400829 
L 215.671172 -40.469027 
L 216.314293 -40.370871 
L 216.957414 -40.225173 
L 217.600535 -40.143628 
L 218.243656 -40.02794 
L 218.886776 -39.962812 
L 219.529897 -39.847312 
L 220.173018 -39.804134 
L 220.816139 -39.595455 
L 221.45926 -39.469631 
L 222.102381 -39.383559 
L 222.745502 -39.328794 
L 223.388623 -39.265715 
L 224.031744 -39.210557 
L 224.674865 -39.055034 
L 225.317986 -38.96796 
L 225.961107 -38.974938 
L 226.604228 -38.885939 
L 227.247349 -38.715118 
L 227.89047 -38.665415 
L 228.533591 -38.52769 
L 229.176712 -38.462085 
L 229.819832 -38.298237 
L 230.462953 -38.192381 
L 231.106074 -38.058061 
L 231.749195 -37.907112 
L 232.392316 -37.856883 
L 233.035437 -37.761799 
L 233.678558 -37.644698 
L 234.321679 -37.602353 
L 234.9648 -37.717047 
L 234.9648 -37.717047 
L 234.9648 -37.717047 
L 234.321679 -37.863785 
L 233.678558 -38.032954 
L 233.035437 -38.233795 
L 232.392316 -38.413126 
L 231.749195 -38.543184 
L 231.106074 -38.743545 
L 230.462953 -38.933351 
L 229.819832 -39.085121 
L 229.176712 -39.335513 
L 228.533591 -39.46807 
L 227.89047 -39.618699 
L 227.247349 -39.73258 
L 226.604228 -39.926638 
L 225.961107 -40.100666 
L 225.317986 -40.09519 
L 224.674865 -40.223971 
L 224.031744 -40.410643 
L 223.388623 -40.517718 
L 222.745502 -40.648607 
L 222.102381 -40.682234 
L 221.45926 -40.848017 
L 220.816139 -41.010576 
L 220.173018 -41.255797 
L 219.529897 -41.355417 
L 218.886776 -41.493293 
L 218.243656 -41.664576 
L 217.600535 -41.825712 
L 216.957414 -41.953593 
L 216.314293 -42.172003 
L 215.671172 -42.330686 
L 215.028051 -42.307454 
L 214.38493 -42.394276 
L 213.741809 -42.380576 
L 213.098688 -42.50941 
L 212.455567 -42.614584 
L 211.812446 -42.793326 
L 211.169325 -42.882459 
L 210.526204 -43.104598 
L 209.883083 -43.146969 
L 209.239962 -43.160741 
L 208.596841 -43.333758 
L 207.95372 -43.337791 
L 207.3106 -43.394091 
L 206.667479 -43.560243 
L 206.024358 -43.64243 
L 205.381237 -43.653591 
L 204.738116 -43.730784 
L 204.094995 -43.820522 
L 203.451874 -43.973461 
L 202.808753 -44.176125 
L 202.165632 -44.308928 
L 201.522511 -44.516877 
L 200.87939 -44.737575 
L 200.236269 -44.818978 
L 199.593148 -44.931942 
L 198.950027 -45.041268 
L 198.306906 -45.222588 
L 197.663785 -45.213268 
L 197.020664 -45.412335 
L 196.377544 -45.462071 
L 195.734423 -45.53243 
L 195.091302 -45.560832 
L 194.448181 -45.712073 
L 193.80506 -45.836196 
L 193.161939 -46.024116 
L 192.518818 -46.109772 
L 191.875697 -46.282621 
L 191.232576 -46.336946 
L 190.589455 -46.482886 
L 189.946334 -46.544084 
L 189.303213 -46.607671 
L 188.660092 -46.763555 
L 188.016971 -46.720886 
L 187.37385 -46.828107 
L 186.730729 -46.894555 
L 186.087608 -46.863276 
L 185.444488 -47.068087 
L 184.801367 -47.262008 
L 184.158246 -47.518357 
L 183.515125 -47.572987 
L 182.872004 -47.562278 
L 182.228883 -47.599819 
L 181.585762 -47.68269 
L 180.942641 -47.896952 
L 180.29952 -48.056532 
L 179.656399 -48.167488 
L 179.013278 -48.199945 
L 178.370157 -48.30197 
L 177.727036 -48.425244 
L 177.083915 -48.475598 
L 176.440794 -48.521609 
L 175.797673 -48.555069 
L 175.154552 -48.756675 
L 174.511432 -48.833268 
L 173.868311 -48.84804 
L 173.22519 -48.900134 
L 172.582069 -48.991482 
L 171.938948 -49.1227 
L 171.295827 -49.41116 
L 170.652706 -49.687096 
L 170.009585 -49.737532 
L 169.366464 -49.920037 
L 168.723343 -49.899618 
L 168.080222 -49.90973 
L 167.437101 -49.969513 
L 166.79398 -49.992484 
L 166.150859 -50.089403 
L 165.507738 -50.205963 
L 164.864617 -50.223189 
L 164.221496 -50.260695 
L 163.578376 -50.329648 
L 162.935255 -50.484526 
L 162.292134 -50.575445 
L 161.649013 -50.750335 
L 161.005892 -50.998645 
L 160.362771 -51.209178 
L 159.71965 -51.532733 
L 159.076529 -51.630572 
L 158.433408 -51.844583 
L 157.790287 -52.008821 
L 157.147166 -52.184396 
L 156.504045 -52.27916 
L 155.860924 -52.39378 
L 155.217803 -52.483371 
L 154.574682 -52.422241 
L 153.931561 -52.585321 
L 153.28844 -52.624141 
L 152.64532 -52.691874 
L 152.002199 -52.750493 
L 151.359078 -52.832665 
L 150.715957 -52.912018 
L 150.072836 -52.9842 
L 149.429715 -53.252615 
L 148.786594 -53.546922 
L 148.143473 -53.636828 
L 147.500352 -53.600043 
L 146.857231 -53.641005 
L 146.21411 -53.862471 
L 145.570989 -54.085075 
L 144.927868 -54.309534 
L 144.284747 -54.534232 
L 143.641626 -54.696841 
L 142.998505 -54.778543 
L 142.355384 -54.879412 
L 141.712264 -54.981489 
L 141.069143 -55.217314 
L 140.426022 -55.145828 
L 139.782901 -55.410459 
L 139.13978 -55.316186 
L 138.496659 -55.45645 
L 137.853538 -55.494836 
L 137.210417 -55.568734 
L 136.567296 -55.634827 
L 135.924175 -55.796864 
L 135.281054 -56.054626 
L 134.637933 -56.358841 
L 133.994812 -56.552843 
L 133.351691 -56.641064 
L 132.70857 -57.016021 
L 132.065449 -57.222522 
L 131.422328 -57.292257 
L 130.779208 -57.352519 
L 130.136087 -57.355576 
L 129.492966 -57.337201 
L 128.849845 -57.492435 
L 128.206724 -57.556733 
L 127.563603 -57.61578 
L 126.920482 -57.890952 
L 126.277361 -57.96762 
L 125.63424 -58.519616 
L 124.991119 -58.532847 
L 124.347998 -58.668764 
L 123.704877 -58.791794 
L 123.061756 -58.982061 
L 122.418635 -59.100625 
L 121.775514 -59.354977 
L 121.132393 -59.296239 
L 120.489272 -59.215163 
L 119.846152 -59.433093 
L 119.203031 -59.840459 
L 118.55991 -59.935726 
L 117.916789 -60.27078 
L 117.273668 -60.379143 
L 116.630547 -60.578561 
L 115.987426 -60.729531 
L 115.344305 -60.782471 
L 114.701184 -60.864731 
L 114.058063 -60.841848 
L 113.414942 -61.069439 
L 112.771821 -61.374524 
L 112.1287 -61.653954 
L 111.485579 -61.888879 
L 110.842458 -62.209132 
L 110.199337 -62.185272 
L 109.556216 -62.100211 
L 108.913096 -62.450879 
L 108.269975 -62.625741 
L 107.626854 -63.074608 
L 106.983733 -63.443529 
L 106.340612 -63.625395 
L 105.697491 -63.854412 
L 105.05437 -64.101912 
L 104.411249 -64.296453 
L 103.768128 -64.109069 
L 103.125007 -64.484471 
L 102.481886 -64.583867 
L 101.838765 -64.648778 
L 101.195644 -64.843278 
L 100.552523 -65.047588 
L 99.909402 -64.983146 
L 99.266281 -65.066363 
L 98.62316 -65.223064 
L 97.98004 -65.307021 
L 97.336919 -65.254331 
L 96.693798 -65.353443 
L 96.050677 -65.646624 
L 95.407556 -65.819986 
L 94.764435 -66.093221 
L 94.121314 -66.618488 
L 93.478193 -67.205935 
L 92.835072 -67.49594 
L 92.191951 -67.810729 
L 91.54883 -67.776873 
L 90.905709 -67.646675 
L 90.262588 -67.598465 
L 89.619467 -67.430798 
L 88.976346 -67.405716 
L 88.333225 -67.40137 
L 87.690104 -67.980189 
L 87.046984 -68.504305 
L 86.403863 -68.871337 
L 85.760742 -68.700863 
L 85.117621 -68.910586 
L 84.4745 -69.293632 
L 83.831379 -69.273463 
L 83.188258 -68.979082 
L 82.545137 -68.332989 
L 81.902016 -69.300901 
L 81.258895 -70.332501 
L 80.615774 -69.533791 
L 79.972653 -68.970409 
L 79.329532 -68.899935 
L 78.686411 -69.257513 
L 78.04329 -69.131852 
L 77.400169 -68.761464 
L 76.757048 -68.463578 
L 76.113928 -68.725434 
L 75.470807 -68.96658 
L 74.827686 -68.164017 
L 74.184565 -68.26447 
L 73.541444 -68.829198 
L 72.898323 -69.259238 
L 72.255202 -70.668993 
L 71.612081 -72.129941 
L 70.96896 -73.425882 
z
"/>
    </defs>
    <g clip-path="url(#p1d1ccfc89f)">
     <use xlink:href="#mf4f2515c7b" x="0" y="226.8" style="fill: #333333; fill-opacity: 0.14"/>
    </g>
   </g>
   <g id="matplotlib.axis_3">
    <g id="xtick_7">
     <g id="line2d_14">
      <defs>
       <path id="m1eb7df39ab" d="M 0 0 
L 0 3.5 
" style="stroke: #333333; stroke-width: 0.8"/>
      </defs>
      <g>
       <use xlink:href="#m1eb7df39ab" x="62.3376" y="192.78" style="fill: #333333; stroke: #333333; stroke-width: 0.8"/>
      </g>
     </g>
     <g id="text_12">
      <text style="font-size: 7px; font-family: 'Arial', 'Helvetica', 'DejaVu Sans', sans-serif; text-anchor: middle; fill: #333333" x="62.3376" y="204.790469" transform="rotate(-0 62.3376 204.790469)">0.0</text>
     </g>
    </g>
    <g id="xtick_8">
     <g id="line2d_15">
      <g>
       <use xlink:href="#m1eb7df39ab" x="96.86304" y="192.78" style="fill: #333333; stroke: #333333; stroke-width: 0.8"/>
      </g>
     </g>
     <g id="text_13">
      <text style="font-size: 7px; font-family: 'Arial', 'Helvetica', 'DejaVu Sans', sans-serif; text-anchor: middle; fill: #333333" x="96.86304" y="204.790469" transform="rotate(-0 96.86304 204.790469)">0.2</text>
     </g>
    </g>
    <g id="xtick_9">
     <g id="line2d_16">
      <g>
       <use xlink:href="#m1eb7df39ab" x="131.38848" y="192.78" style="fill: #333333; stroke: #333333; stroke-width: 0.8"/>
      </g>
     </g>
     <g id="text_14">
      <text style="font-size: 7px; font-family: 'Arial', 'Helvetica', 'DejaVu Sans', sans-serif; text-anchor: middle; fill: #333333" x="131.38848" y="204.790469" transform="rotate(-0 131.38848 204.790469)">0.4</text>
     </g>
    </g>
    <g id="xtick_10">
     <g id="line2d_17">
      <g>
       <use xlink:href="#m1eb7df39ab" x="165.91392" y="192.78" style="fill: #333333; stroke: #333333; stroke-width: 0.8"/>
      </g>
     </g>
     <g id="text_15">
      <text style="font-size: 7px; font-family: 'Arial', 'Helvetica', 'DejaVu Sans', sans-serif; text-anchor: middle; fill: #333333" x="165.91392" y="204.790469" transform="rotate(-0 165.91392 204.790469)">0.6</text>
     </g>
    </g>
    <g id="xtick_11">
     <g id="line2d_18">
      <g>
       <use xlink:href="#m1eb7df39ab" x="200.43936" y="192.78" style="fill: #333333; stroke: #333333; stroke-width: 0.8"/>
      </g>
     </g>
     <g id="text_16">
      <text style="font-size: 7px; font-family: 'Arial', 'Helvetica', 'DejaVu Sans', sans-serif; text-anchor: middle; fill: #333333" x="200.43936" y="204.790469" transform="rotate(-0 200.43936 204.790469)">0.8</text>
     </g>
    </g>
    <g id="xtick_12">
     <g id="line2d_19">
      <g>
       <use xlink:href="#m1eb7df39ab" x="234.9648" y="192.78" style="fill: #333333; stroke: #333333; stroke-width: 0.8"/>
      </g>
     </g>
     <g id="text_17">
      <text style="font-size: 7px; font-family: 'Arial', 'Helvetica', 'DejaVu Sans', sans-serif; text-anchor: middle; fill: #333333" x="234.9648" y="204.790469" transform="rotate(-0 234.9648 204.790469)">1.0</text>
     </g>
    </g>
    <g id="text_18">
     <text style="font-size: 8px; font-family: 'Arial', 'Helvetica', 'DejaVu Sans', sans-serif; text-anchor: middle; fill: #333333" x="148.6512" y="216.005469" transform="rotate(-0 148.6512 216.005469)">Coverage</text>
    </g>
   </g>
   <g id="matplotlib.axis_4">
    <g id="ytick_7">
     <g id="line2d_20">
      <g>
       <use xlink:href="#ma52d98824d" x="62.3376" y="189.082953" style="fill: #333333; stroke: #333333; stroke-width: 0.8"/>
      </g>
     </g>
     <g id="text_19">
      <text style="font-size: 7px; font-family: 'Arial', 'Helvetica', 'DejaVu Sans', sans-serif; text-anchor: end; fill: #333333" x="55.3376" y="191.588187" transform="rotate(-0 55.3376 191.588187)">0</text>
     </g>
    </g>
    <g id="ytick_8">
     <g id="line2d_21">
      <g>
       <use xlink:href="#ma52d98824d" x="62.3376" y="177.097969" style="fill: #333333; stroke: #333333; stroke-width: 0.8"/>
      </g>
     </g>
     <g id="text_20">
      <text style="font-size: 7px; font-family: 'Arial', 'Helvetica', 'DejaVu Sans', sans-serif; text-anchor: end; fill: #333333" x="55.3376" y="179.603204" transform="rotate(-0 55.3376 179.603204)">1</text>
     </g>
    </g>
    <g id="ytick_9">
     <g id="line2d_22">
      <g>
       <use xlink:href="#ma52d98824d" x="62.3376" y="165.112986" style="fill: #333333; stroke: #333333; stroke-width: 0.8"/>
      </g>
     </g>
     <g id="text_21">
      <text style="font-size: 7px; font-family: 'Arial', 'Helvetica', 'DejaVu Sans', sans-serif; text-anchor: end; fill: #333333" x="55.3376" y="167.61822" transform="rotate(-0 55.3376 167.61822)">2</text>
     </g>
    </g>
    <g id="ytick_10">
     <g id="line2d_23">
      <g>
       <use xlink:href="#ma52d98824d" x="62.3376" y="153.128003" style="fill: #333333; stroke: #333333; stroke-width: 0.8"/>
      </g>
     </g>
     <g id="text_22">
      <text style="font-size: 7px; font-family: 'Arial', 'Helvetica', 'DejaVu Sans', sans-serif; text-anchor: end; fill: #333333" x="55.3376" y="155.633237" transform="rotate(-0 55.3376 155.633237)">3</text>
     </g>
    </g>
    <g id="text_23">
     <text style="font-size: 7px; font-family: 'Arial', 'Helvetica', 'DejaVu Sans', sans-serif; fill: #333333" transform="translate(38.465475 194.822289) rotate(-90)">Random minus</text>
     <text style="font-size: 7px; font-family: 'Arial', 'Helvetica', 'DejaVu Sans', sans-serif; fill: #333333" transform="translate(45.971663 203.76807) rotate(-90)">prespecified risk (pp)</text>
    </g>
   </g>
   <g id="line2d_24">
    <path d="M 70.96896 168.816286 
L 71.612081 169.690151 
L 72.255202 170.918474 
L 72.898323 171.803479 
L 73.541444 171.709814 
L 74.827686 172.161344 
L 76.113928 170.639675 
L 76.757048 170.48281 
L 77.400169 170.699694 
L 78.04329 169.82732 
L 78.686411 169.430876 
L 79.329532 169.536009 
L 80.615774 168.124729 
L 81.258895 166.940266 
L 81.902016 168.29826 
L 82.545137 168.728495 
L 83.831379 167.499038 
L 84.4745 167.432834 
L 85.117621 168.091829 
L 85.760742 167.808336 
L 87.690104 167.638387 
L 88.333225 168.380983 
L 88.976346 168.440668 
L 89.619467 168.01868 
L 90.262588 167.950788 
L 91.54883 167.684696 
L 92.191951 167.250806 
L 92.835072 167.589702 
L 93.478193 167.601478 
L 94.764435 168.821386 
L 95.407556 168.831632 
L 96.050677 169.049612 
L 97.98004 168.905205 
L 99.266281 169.309556 
L 99.909402 168.747454 
L 101.195644 168.683567 
L 101.838765 168.731196 
L 102.481886 168.964938 
L 103.125007 168.778756 
L 104.411249 169.346598 
L 105.05437 169.412721 
L 105.697491 169.61902 
L 106.340612 169.562663 
L 108.913096 170.878819 
L 109.556216 171.043354 
L 110.199337 170.997079 
L 110.842458 170.747758 
L 111.485579 170.817416 
L 112.1287 171.105627 
L 114.058063 171.595711 
L 115.344305 171.590013 
L 117.273668 171.833324 
L 117.916789 172.122536 
L 118.55991 172.102589 
L 119.846152 172.371587 
L 120.489272 172.847377 
L 121.132393 172.813012 
L 121.775514 172.611283 
L 123.704877 173.026123 
L 125.63424 173.373841 
L 126.277361 173.890156 
L 126.920482 174.167424 
L 128.206724 174.101091 
L 128.849845 174.244639 
L 131.422328 173.987899 
L 132.065449 174.024959 
L 133.351691 174.592655 
L 133.994812 174.581001 
L 134.637933 174.715579 
L 135.924175 175.228935 
L 136.567296 175.345176 
L 137.210417 175.32223 
L 137.853538 175.543653 
L 138.496659 175.45733 
L 139.13978 175.514268 
L 139.782901 175.437626 
L 141.069143 175.7488 
L 141.712264 175.689653 
L 142.355384 175.896478 
L 143.641626 175.980255 
L 144.284747 176.27185 
L 145.570989 176.401726 
L 146.857231 176.697076 
L 147.500352 176.820221 
L 148.143473 176.636765 
L 149.429715 177.059982 
L 151.359078 177.38593 
L 152.002199 177.309508 
L 152.64532 177.544736 
L 153.931561 177.537686 
L 157.147166 177.728667 
L 157.790287 177.976008 
L 160.362771 178.545881 
L 161.005892 178.850757 
L 164.221496 179.345111 
L 170.652706 179.682371 
L 171.938948 180.211359 
L 177.083915 180.602481 
L 179.656399 180.837214 
L 180.942641 181.066235 
L 182.228883 181.34746 
L 184.158246 181.215709 
L 186.087608 181.835107 
L 187.37385 181.795632 
L 188.016971 181.969538 
L 188.660092 181.843695 
L 189.946334 182.084629 
L 190.589455 182.067041 
L 192.518818 182.45035 
L 193.161939 182.479841 
L 193.80506 182.693271 
L 194.448181 182.678754 
L 195.091302 182.859267 
L 197.020664 182.944904 
L 197.663785 183.097427 
L 198.306906 183.066038 
L 201.522511 183.667569 
L 204.094995 184.294366 
L 207.95372 184.720047 
L 208.596841 184.704534 
L 209.239962 184.836003 
L 210.526204 184.807031 
L 211.169325 185.020487 
L 211.812446 185.077937 
L 213.098688 185.336514 
L 213.741809 185.439939 
L 215.028051 185.435613 
L 215.671172 185.417814 
L 217.600535 185.801942 
L 222.102381 186.77789 
L 223.388623 186.882098 
L 229.176712 187.882845 
L 230.462953 188.239319 
L 234.321679 189.056716 
L 234.9648 189.082953 
L 234.9648 189.082953 
" clip-path="url(#p1d1ccfc89f)" style="fill: none; stroke: #333333; stroke-width: 1.1; stroke-linecap: square"/>
    <defs>
     <path id="m441fcced3e" d="M -1.45 1.45 
L 1.45 1.45 
L 1.45 -1.45 
L -1.45 -1.45 
z
" style="stroke: #333333; stroke-linejoin: miter"/>
    </defs>
    <g clip-path="url(#p1d1ccfc89f)">
     <use xlink:href="#m441fcced3e" x="70.96896" y="168.816286" style="fill: #333333; stroke: #333333; stroke-linejoin: miter"/>
     <use xlink:href="#m441fcced3e" x="91.54883" y="167.684696" style="fill: #333333; stroke: #333333; stroke-linejoin: miter"/>
     <use xlink:href="#m441fcced3e" x="112.1287" y="171.105627" style="fill: #333333; stroke: #333333; stroke-linejoin: miter"/>
     <use xlink:href="#m441fcced3e" x="132.70857" y="174.321937" style="fill: #333333; stroke: #333333; stroke-linejoin: miter"/>
     <use xlink:href="#m441fcced3e" x="153.28844" y="177.511846" style="fill: #333333; stroke: #333333; stroke-linejoin: miter"/>
     <use xlink:href="#m441fcced3e" x="173.868311" y="180.370587" style="fill: #333333; stroke: #333333; stroke-linejoin: miter"/>
     <use xlink:href="#m441fcced3e" x="194.448181" y="182.678754" style="fill: #333333; stroke: #333333; stroke-linejoin: miter"/>
     <use xlink:href="#m441fcced3e" x="215.028051" y="185.435613" style="fill: #333333; stroke: #333333; stroke-linejoin: miter"/>
    </g>
   </g>
   <g id="patch_7">
    <path d="M 62.3376 192.78 
L 62.3376 149.791765 
" style="fill: none; stroke: #333333; stroke-width: 0.8; stroke-linejoin: miter; stroke-linecap: square"/>
   </g>
   <g id="patch_8">
    <path d="M 234.9648 192.78 
L 234.9648 149.791765 
" style="fill: none; stroke: #333333; stroke-width: 0.8; stroke-linejoin: miter; stroke-linecap: square"/>
   </g>
   <g id="patch_9">
    <path d="M 62.3376 192.78 
L 234.9648 192.78 
" style="fill: none; stroke: #333333; stroke-width: 0.8; stroke-linejoin: miter; stroke-linecap: square"/>
   </g>
   <g id="patch_10">
    <path d="M 62.3376 149.791765 
L 234.9648 149.791765 
" style="fill: none; stroke: #333333; stroke-width: 0.8; stroke-linejoin: miter; stroke-linecap: square"/>
   </g>
   <g id="text_24">
    <g id="patch_11">
     <path d="M 64.527008 159.848676 
L 75.540758 159.848676 
L 75.540758 151.541176 
L 64.527008 151.541176 
z
" style="fill: #ffffff; opacity: 0.85"/>
    </g>
    <text style="font-weight: 700; font-size: 8px; font-family: 'Arial', 'Helvetica', 'DejaVu Sans', sans-serif; text-anchor: start; fill: #333333" x="64.927008" y="157.764926" transform="rotate(-0 64.927008 157.764926)">(b)</text>
   </g>
  </g>
 </g>
 <defs>
  <clipPath id="p7853bd6385">
   <rect x="62.3376" y="61.236" width="172.6272" height="85.976471"/>
  </clipPath>
  <clipPath id="p1d1ccfc89f">
   <rect x="62.3376" y="149.791765" width="172.6272" height="42.988235"/>
  </clipPath>
 </defs>
</svg>
